<?xml version="1.0" encoding="UTF-8"?>
<svg xmlns="http://www.w3.org/2000/svg" version="1.1" viewBox="0 0 1366 768">
  <defs>
    <style>
      .cls-1 {
        fill: #0193d7;
      }

      .cls-2 {
        fill: #003d9a;
      }

      .cls-3 {
        fill: #5bc5ed;
      }

      .cls-4 {
        fill: #fff;
        stroke: #000;
        stroke-miterlimit: 10;
      }

      .cls-5 {
        fill: #fbfbfb;
      }

      .cls-6 {
        fill: #007ad2;
      }

      .cls-7 {
        fill: #0140a2;
      }
    </style>
  </defs>
  <!-- Generator: Adobe Illustrator 28.7.1, SVG Export Plug-In . SVG Version: 1.2.0 Build 142)  -->
  <g>
    <g id="Layer_5">
      <g>
        <path class="cls-4" d="M388.49,657.3v-39.2h26.88v3.58h-22.74v35.62h-4.14ZM392.19,640.67v-3.58h20.72v3.58h-20.72Z"/>
        <path class="cls-4" d="M427.13,657.3v-29.4h3.81v8.01l-.39-1.4c.82-2.24,2.2-3.95,4.14-5.12,1.94-1.18,4.35-1.76,7.22-1.76v3.87c-.15,0-.3,0-.45-.03-.15-.02-.3-.03-.45-.03-3.1,0-5.53.94-7.28,2.83-1.75,1.89-2.63,4.56-2.63,8.04v15.01h-3.98Z"/>
        <path class="cls-4" d="M465.43,657.58c-2.88,0-5.43-.64-7.67-1.93-2.24-1.29-4.01-3.07-5.32-5.35-1.31-2.28-1.96-4.85-1.96-7.73s.65-5.54,1.96-7.79c1.31-2.24,3.08-3.99,5.32-5.26,2.24-1.27,4.8-1.9,7.67-1.9s5.5.64,7.76,1.93c2.26,1.29,4.03,3.04,5.32,5.26s1.93,4.81,1.93,7.76-.64,5.5-1.93,7.76-3.07,4.03-5.35,5.32c-2.28,1.29-4.85,1.93-7.73,1.93ZM465.43,654.05c2.13,0,4.01-.48,5.66-1.43,1.64-.95,2.94-2.3,3.89-4.03.95-1.74,1.43-3.74,1.43-6.02s-.48-4.33-1.43-6.05c-.95-1.72-2.25-3.05-3.89-4-1.64-.95-3.51-1.43-5.6-1.43s-3.96.48-5.6,1.43c-1.64.95-2.95,2.29-3.92,4-.97,1.72-1.46,3.73-1.46,6.05s.48,4.28,1.46,6.02c.97,1.74,2.27,3.08,3.89,4.03s3.48,1.43,5.57,1.43Z"/>
        <path class="cls-4" d="M493.15,657.3v-29.4h3.81v7.95l-.62-1.4c.9-2.13,2.34-3.8,4.34-5.01,2-1.21,4.36-1.82,7.08-1.82,2.87,0,5.32.72,7.34,2.16,2.02,1.44,3.32,3.59,3.92,6.47l-1.57-.62c.86-2.39,2.38-4.32,4.56-5.8s4.81-2.21,7.87-2.21c2.39,0,4.47.46,6.24,1.37,1.77.92,3.15,2.3,4.14,4.17.99,1.87,1.48,4.22,1.48,7.06v17.08h-3.98v-16.69c0-3.1-.74-5.44-2.21-7.03-1.48-1.59-3.56-2.38-6.24-2.38-2.02,0-3.76.42-5.24,1.26-1.48.84-2.61,2.05-3.42,3.64-.8,1.59-1.2,3.5-1.2,5.74v15.46h-3.98v-16.69c0-3.1-.75-5.44-2.24-7.03-1.49-1.59-3.58-2.38-6.27-2.38-1.98,0-3.72.42-5.21,1.26-1.49.84-2.64,2.05-3.44,3.64-.8,1.59-1.2,3.5-1.2,5.74v15.46h-3.98Z"/>
        <path class="cls-4" d="M588.07,657.63c-2.91,0-5.7-.48-8.37-1.43-2.67-.95-4.73-2.17-6.19-3.67l1.62-3.19c1.38,1.34,3.24,2.47,5.57,3.39,2.33.91,4.79,1.37,7.36,1.37s4.47-.31,6.02-.92c1.55-.62,2.69-1.45,3.42-2.49.73-1.04,1.09-2.2,1.09-3.47,0-1.53-.44-2.76-1.32-3.7-.88-.93-2.03-1.67-3.44-2.21-1.42-.54-2.99-1.02-4.7-1.43-1.72-.41-3.44-.85-5.15-1.32-1.72-.47-3.3-1.09-4.73-1.88-1.44-.78-2.6-1.82-3.47-3.11-.88-1.29-1.32-2.98-1.32-5.07,0-1.94.51-3.72,1.54-5.35,1.03-1.62,2.6-2.93,4.73-3.92,2.13-.99,4.85-1.48,8.18-1.48,2.2,0,4.39.31,6.55.92,2.16.62,4.03,1.47,5.6,2.55l-1.4,3.3c-1.68-1.12-3.46-1.94-5.35-2.46-1.89-.52-3.71-.78-5.46-.78-2.35,0-4.29.32-5.82.95-1.53.63-2.66,1.48-3.39,2.55s-1.09,2.27-1.09,3.61c0,1.53.44,2.76,1.32,3.7.88.93,2.03,1.66,3.47,2.18,1.44.52,3.01.99,4.73,1.4,1.72.41,3.42.86,5.12,1.34,1.7.49,3.27,1.11,4.7,1.88,1.44.77,2.59,1.78,3.47,3.05.88,1.27,1.32,2.93,1.32,4.98,0,1.9-.52,3.67-1.57,5.29-1.05,1.62-2.64,2.93-4.79,3.92-2.15.99-4.9,1.48-8.26,1.48Z"/>
        <path class="cls-4" d="M627.67,657.58c-2.91,0-5.52-.64-7.81-1.93-2.3-1.29-4.1-3.06-5.4-5.32-1.31-2.26-1.96-4.84-1.96-7.76s.65-5.54,1.96-7.79c1.31-2.24,3.11-3.99,5.4-5.26,2.3-1.27,4.9-1.9,7.81-1.9,2.5,0,4.76.49,6.78,1.46,2.02.97,3.6,2.43,4.76,4.37l-2.97,2.02c-1.01-1.49-2.26-2.59-3.75-3.3-1.49-.71-3.12-1.06-4.87-1.06-2.09,0-3.98.48-5.66,1.43-1.68.95-3.01,2.29-3.98,4-.97,1.72-1.46,3.73-1.46,6.05s.48,4.33,1.46,6.05c.97,1.72,2.3,3.05,3.98,4s3.56,1.43,5.66,1.43c1.75,0,3.38-.35,4.87-1.06,1.49-.71,2.74-1.79,3.75-3.25l2.97,2.02c-1.16,1.9-2.74,3.35-4.76,4.34-2.02.99-4.27,1.48-6.78,1.48Z"/>
        <path class="cls-4" d="M659.87,657.58c-2.2,0-4.12-.36-5.74-1.09-1.62-.73-2.87-1.74-3.72-3.02-.86-1.29-1.29-2.77-1.29-4.45,0-1.53.36-2.92,1.09-4.17.73-1.25,1.92-2.26,3.58-3.02,1.66-.77,3.89-1.15,6.69-1.15h10.14v2.97h-10.02c-2.84,0-4.81.5-5.91,1.51-1.1,1.01-1.65,2.26-1.65,3.75,0,1.68.65,3.02,1.96,4.03,1.31,1.01,3.14,1.51,5.49,1.51s4.17-.51,5.8-1.54,2.81-2.51,3.56-4.45l.9,2.74c-.75,1.94-2.04,3.49-3.89,4.65-1.85,1.16-4.17,1.74-6.97,1.74ZM670,657.3v-6.5l-.17-1.06v-10.86c0-2.5-.7-4.42-2.1-5.77-1.4-1.34-3.48-2.02-6.24-2.02-1.9,0-3.72.32-5.43.95-1.72.64-3.17,1.48-4.37,2.52l-1.79-2.97c1.49-1.27,3.29-2.25,5.38-2.94,2.09-.69,4.29-1.04,6.61-1.04,3.81,0,6.75.94,8.82,2.83,2.07,1.89,3.11,4.75,3.11,8.6v18.26h-3.81Z"/>
        <path class="cls-4" d="M689.21,657.3v-29.4h3.81v8.06l-.62-1.51c.93-2.13,2.43-3.8,4.48-5.01,2.05-1.21,4.5-1.82,7.34-1.82,2.39,0,4.49.46,6.3,1.37,1.81.92,3.23,2.3,4.26,4.17,1.03,1.87,1.54,4.22,1.54,7.06v17.08h-3.98v-16.69c0-3.1-.77-5.44-2.32-7.03-1.55-1.59-3.72-2.38-6.52-2.38-2.09,0-3.91.42-5.46,1.26-1.55.84-2.74,2.05-3.58,3.64-.84,1.59-1.26,3.5-1.26,5.74v15.46h-3.98Z"/>
        <path class="cls-4" d="M746.33,631.2v-3.3h18.2v3.3h-18.2ZM760.22,657.58c-2.76,0-4.89-.75-6.38-2.24-1.49-1.49-2.24-3.6-2.24-6.33v-27.61h3.98v27.38c0,1.72.44,3.04,1.32,3.98.88.93,2.14,1.4,3.78,1.4,1.75,0,3.21-.5,4.37-1.51l1.4,2.86c-.78.71-1.73,1.23-2.83,1.57-1.1.34-2.23.5-3.39.5Z"/>
        <path class="cls-4" d="M789.17,657.58c-2.88,0-5.43-.64-7.67-1.93-2.24-1.29-4.01-3.07-5.32-5.35-1.31-2.28-1.96-4.85-1.96-7.73s.65-5.54,1.96-7.79c1.31-2.24,3.08-3.99,5.32-5.26,2.24-1.27,4.8-1.9,7.67-1.9s5.5.64,7.76,1.93,4.03,3.04,5.32,5.26c1.29,2.22,1.93,4.81,1.93,7.76s-.64,5.5-1.93,7.76c-1.29,2.26-3.07,4.03-5.35,5.32-2.28,1.29-4.85,1.93-7.73,1.93ZM789.17,654.05c2.13,0,4.01-.48,5.66-1.43s2.94-2.3,3.89-4.03c.95-1.74,1.43-3.74,1.43-6.02s-.48-4.33-1.43-6.05c-.95-1.72-2.25-3.05-3.89-4-1.64-.95-3.51-1.43-5.6-1.43s-3.96.48-5.6,1.43c-1.64.95-2.95,2.29-3.92,4-.97,1.72-1.46,3.73-1.46,6.05s.49,4.28,1.46,6.02c.97,1.74,2.27,3.08,3.89,4.03s3.48,1.43,5.57,1.43Z"/>
        <path class="cls-4" d="M847.8,657.63c-2.91,0-5.7-.48-8.37-1.43-2.67-.95-4.73-2.17-6.19-3.67l1.62-3.19c1.38,1.34,3.24,2.47,5.57,3.39,2.33.91,4.79,1.37,7.36,1.37s4.47-.31,6.02-.92c1.55-.62,2.69-1.45,3.42-2.49.73-1.04,1.09-2.2,1.09-3.47,0-1.53-.44-2.76-1.32-3.7-.88-.93-2.03-1.67-3.44-2.21-1.42-.54-2.99-1.02-4.7-1.43-1.72-.41-3.43-.85-5.15-1.32-1.72-.47-3.3-1.09-4.73-1.88-1.44-.78-2.6-1.82-3.47-3.11-.88-1.29-1.32-2.98-1.32-5.07,0-1.94.51-3.72,1.54-5.35,1.03-1.62,2.6-2.93,4.73-3.92,2.13-.99,4.85-1.48,8.18-1.48,2.2,0,4.39.31,6.55.92,2.17.62,4.03,1.47,5.6,2.55l-1.4,3.3c-1.68-1.12-3.46-1.94-5.35-2.46-1.89-.52-3.71-.78-5.46-.78-2.35,0-4.29.32-5.82.95s-2.66,1.48-3.39,2.55c-.73,1.06-1.09,2.27-1.09,3.61,0,1.53.44,2.76,1.32,3.7.88.93,2.04,1.66,3.47,2.18,1.44.52,3.01.99,4.73,1.4,1.72.41,3.42.86,5.12,1.34,1.7.49,3.27,1.11,4.71,1.88,1.44.77,2.59,1.78,3.47,3.05.88,1.27,1.32,2.93,1.32,4.98,0,1.9-.52,3.67-1.57,5.29-1.05,1.62-2.64,2.93-4.79,3.92-2.15.99-4.9,1.48-8.26,1.48Z"/>
        <path class="cls-4" d="M875.19,657.3v-29.4h3.81v7.95l-.62-1.4c.9-2.13,2.34-3.8,4.34-5.01,2-1.21,4.36-1.82,7.08-1.82,2.87,0,5.32.72,7.34,2.16,2.02,1.44,3.32,3.59,3.92,6.47l-1.57-.62c.86-2.39,2.38-4.32,4.56-5.8s4.81-2.21,7.87-2.21c2.39,0,4.47.46,6.24,1.37,1.77.92,3.15,2.3,4.14,4.17s1.48,4.22,1.48,7.06v17.08h-3.98v-16.69c0-3.1-.74-5.44-2.21-7.03-1.48-1.59-3.56-2.38-6.24-2.38-2.02,0-3.76.42-5.24,1.26-1.48.84-2.61,2.05-3.42,3.64-.8,1.59-1.21,3.5-1.21,5.74v15.46h-3.97v-16.69c0-3.1-.75-5.44-2.24-7.03-1.49-1.59-3.58-2.38-6.27-2.38-1.98,0-3.72.42-5.21,1.26-1.49.84-2.64,2.05-3.44,3.64-.8,1.59-1.21,3.5-1.21,5.74v15.46h-3.98Z"/>
        <path class="cls-4" d="M941.21,621.4c-.82,0-1.51-.28-2.07-.84s-.84-1.23-.84-2.02.28-1.45.84-1.99c.56-.54,1.25-.81,2.07-.81s1.51.26,2.07.78c.56.52.84,1.18.84,1.96s-.27,1.51-.81,2.07c-.54.56-1.24.84-2.1.84ZM939.19,657.3v-29.4h3.98v29.4h-3.98Z"/>
        <path class="cls-4" d="M958.85,657.3v-41.55h3.98v41.55h-3.98Z"/>
        <path class="cls-4" d="M991,657.58c-3.06,0-5.75-.64-8.06-1.93-2.32-1.29-4.12-3.06-5.43-5.32-1.31-2.26-1.96-4.84-1.96-7.76s.62-5.49,1.88-7.73c1.25-2.24,2.97-4,5.15-5.29,2.18-1.29,4.64-1.93,7.36-1.93s5.22.63,7.36,1.88c2.15,1.25,3.84,3.01,5.07,5.26,1.23,2.26,1.85,4.86,1.85,7.81,0,.19,0,.38-.03.59s-.03.42-.03.64h-25.59v-2.97h23.46l-1.57,1.18c0-2.13-.46-4.02-1.37-5.68-.92-1.66-2.16-2.96-3.72-3.89-1.57-.93-3.38-1.4-5.43-1.4s-3.83.47-5.43,1.4c-1.61.93-2.86,2.24-3.75,3.92-.9,1.68-1.34,3.6-1.34,5.77v.62c0,2.24.49,4.21,1.48,5.91s2.37,3.02,4.14,3.98c1.77.95,3.8,1.43,6.08,1.43,1.79,0,3.46-.32,5.01-.95,1.55-.63,2.88-1.6,4-2.91l2.24,2.58c-1.31,1.57-2.94,2.76-4.9,3.58-1.96.82-4.12,1.23-6.47,1.23Z"/>
      </g>
      <g>
        <path class="cls-5" d="M244.49,573.4v-140h105.8v26h-73.6v88h76.2v26h-108.4ZM274.29,515v-25.4h67.4v25.4h-67.4Z"/>
        <path class="cls-5" d="M374.89,573.4l60-83v23.6l-57.4-80.6h36.6l39.8,56-15.6.4,39.6-56.4h35l-57.2,79.2v-23.2l60.6,84h-37.4l-41.2-59.4h14.8l-40.6,59.4h-37Z"/>
        <path class="cls-5" d="M609.69,575.8c-11.07,0-21.27-1.8-30.6-5.4-9.33-3.6-17.47-8.67-24.4-15.2-6.93-6.53-12.3-14.2-16.1-23s-5.7-18.4-5.7-28.8,1.9-20.17,5.7-28.9c3.8-8.73,9.17-16.37,16.1-22.9,6.93-6.53,15.03-11.6,24.3-15.2,9.27-3.6,19.43-5.4,30.5-5.4s21.23,1.77,30.5,5.3c9.27,3.53,17.37,8.57,24.3,15.1,6.93,6.53,12.3,14.2,16.1,23s5.7,18.47,5.7,29-1.9,20.03-5.7,28.9c-3.8,8.87-9.17,16.57-16.1,23.1-6.93,6.53-15.03,11.57-24.3,15.1-9.27,3.53-19.37,5.3-30.3,5.3ZM609.49,548.4c6.27,0,12.03-1.1,17.3-3.3,5.27-2.2,9.9-5.33,13.9-9.4,4-4.07,7.1-8.8,9.3-14.2,2.2-5.4,3.3-11.43,3.3-18.1s-1.1-12.7-3.3-18.1c-2.2-5.4-5.3-10.13-9.3-14.2-4-4.07-8.63-7.2-13.9-9.4-5.27-2.2-11.03-3.3-17.3-3.3s-12.07,1.1-17.4,3.3c-5.33,2.2-9.97,5.33-13.9,9.4-3.93,4.07-7,8.8-9.2,14.2-2.2,5.4-3.3,11.43-3.3,18.1s1.1,12.7,3.3,18.1c2.2,5.4,5.27,10.13,9.2,14.2,3.93,4.07,8.57,7.2,13.9,9.4,5.33,2.2,11.13,3.3,17.4,3.3Z"/>
        <path class="cls-3" d="M723.69,573.4v-140h32.6v113.6h69.8v26.4h-102.4Z"/>
        <path class="cls-3" d="M840.09,573.4l62.2-140h32l62.8,140h-34l-51.4-123.6h13l-51.4,123.6h-33.2ZM871.49,543.4l8.2-24.6h72.4l8.4,24.6h-89Z"/>
        <path class="cls-3" d="M1024.89,573.4v-140h68.4c17.6,0,30.83,3.33,39.7,10,8.87,6.67,13.3,15.47,13.3,26.4,0,7.33-1.8,13.7-5.4,19.1-3.6,5.4-8.57,9.57-14.9,12.5-6.33,2.93-13.5,4.4-21.5,4.4l3.8-8.4c8.8,0,16.57,1.47,23.3,4.4,6.73,2.93,12.03,7.2,15.9,12.8,3.87,5.6,5.8,12.47,5.8,20.6,0,12-4.73,21.37-14.2,28.1-9.47,6.73-23.4,10.1-41.8,10.1h-72.4ZM1057.09,549h38c8.27,0,14.6-1.4,19-4.2,4.4-2.8,6.6-7.13,6.6-13s-2.2-10.4-6.6-13.2c-4.4-2.8-10.73-4.2-19-4.2h-40.4v-23.6h34.6c7.87,0,13.9-1.37,18.1-4.1,4.2-2.73,6.3-6.9,6.3-12.5s-2.1-9.73-6.3-12.4c-4.2-2.67-10.23-4-18.1-4h-32.2v91.2Z"/>
      </g>
    </g>
    <g id="Layer_2">
      <polygon class="cls-3" points="525 241 525 135.09 593 91 674 143 525 241"/>
      <polygon class="cls-6" points="623 70 693.81 25.83 861 134 792 177 623 70"/>
      <polygon class="cls-2" points="708 256 779 212 704 162 634 208 708 256"/>
      <polygon class="cls-1" points="592 331 680 273 605 224 519 282.17 592 331"/>
      <polygon class="cls-7" points="623 347.83 692.57 392 871 279 798 232 623 347.83"/>
    </g>
  </g>
</svg>