<svg xmlns="http://www.w3.org/2000/svg" version="1.1" viewBox="968 163 478 482">
  <path fill="#020101" fill-opacity="0.078" d="M 1301.31 165.00 Q 1240.26 169.95 1179.25 175.00 Q 1150.08 177.41 1118.80 190.19 Q 1130.16 184.23 1137.21 181.55 Q 1155.58 174.58 1179.96 169.59 C 1213.61 162.71 1245.81 158.84 1277.43 161.86 Q 1288.01 162.87 1301.31 165.00 Z" />
  <path fill="#ffffff" d="M 1332.41 171.79 Q 1359.61 229.22 1386.81 286.68 Q 1392.74 299.22 1395.05 304.89 C 1415.51 355.32 1416.36 411.46 1397.48 462.72 Q 1397.27 463.29 1397.55 463.83 Q 1408.75 485.21 1412.74 493.20 C 1417.14 502.01 1413.41 512.36 1404.69 516.92 Q 1401.40 518.64 1392.44 519.01 Q 1385.33 519.31 1365.95 520.16 A 1.84 1.84 0 0 0 1364.60 520.85 C 1329.49 565.25 1278.70 594.05 1222.44 601.43 Q 1215.41 602.35 1202.52 603.15 Q 1135.89 607.28 1069.27 611.23 Q 1068.98 610.94 1069.12 610.96 Q 1039.31 551.40 1009.63 491.79 Q 1003.99 480.46 1001.20 473.74 C 979.42 421.29 978.97 362.74 999.91 310.18 A 1.53 1.53 0 0 0 999.85 308.91 L 990.54 291.00 Q 988.61 287.23 986.68 283.50 Q 984.09 278.50 983.54 275.75 C 981.87 267.38 986.74 258.60 994.94 255.73 Q 997.61 254.80 1003.69 254.50 Q 1010.97 254.15 1018.37 253.88 L 1032.88 253.14 Q 1033.38 253.11 1033.71 252.73 Q 1068.31 211.38 1118.04 190.49 L 1118.80 190.19 Q 1150.08 177.41 1179.25 175.00 Q 1240.26 169.95 1301.31 165.00 L 1327.64 162.91 Q 1328.14 162.87 1328.36 163.32 L 1332.41 171.79 Z M 1003.37 273.54 Q 1003.03 273.25 1002.71 273.34 A 0.28 0.27 -22.2 0 0 1002.54 273.73 L 1020.47 308.31 Q 1020.70 308.77 1020.50 309.23 C 998.13 359.30 997.47 416.41 1018.50 466.85 Q 1021.02 472.90 1027.00 484.91 Q 1053.46 538.11 1080.29 591.89 Q 1139.75 588.37 1199.16 584.74 Q 1212.69 583.92 1219.09 583.10 C 1273.84 576.17 1322.75 547.05 1355.20 502.44 Q 1355.49 502.04 1355.99 502.02 L 1394.32 500.25 Q 1394.69 500.35 1394.94 500.30 Q 1395.50 500.17 1395.23 499.66 L 1377.09 464.66 A 1.07 1.07 0 0 1 1377.05 463.74 Q 1397.03 415.82 1391.13 363.84 Q 1387.47 331.55 1373.25 301.48 Q 1345.24 242.29 1316.95 182.44 Q 1253.71 187.48 1190.47 192.71 Q 1177.59 193.78 1170.62 194.88 C 1119.62 202.91 1074.47 229.91 1042.98 271.03 Q 1042.67 271.42 1042.18 271.44 Q 1010.29 272.80 1004.01 273.12 Q 1003.53 273.15 1003.37 273.54 Z" />
  <path fill="#020101" fill-opacity="0.078" d="M 1069.27 611.23 Q 1135.89 607.28 1202.52 603.15 Q 1215.41 602.35 1222.44 601.43 C 1278.70 594.05 1329.49 565.25 1364.60 520.85 A 1.84 1.84 0 0 1 1365.95 520.16 Q 1385.33 519.31 1392.44 519.01 Q 1401.40 518.64 1404.69 516.92 C 1413.41 512.36 1417.14 502.01 1412.74 493.20 Q 1408.75 485.21 1397.55 463.83 Q 1397.27 463.29 1397.48 462.72 C 1416.36 411.46 1415.51 355.32 1395.05 304.89 Q 1392.74 299.22 1386.81 286.68 Q 1359.61 229.22 1332.41 171.79 Q 1355.01 187.21 1371.92 205.33 C 1384.55 218.85 1394.70 235.08 1403.65 252.17 Q 1420.07 283.50 1430.07 317.28 Q 1445.61 369.78 1443.51 425.52 Q 1442.57 450.41 1437.73 471.69 Q 1421.92 541.33 1364.68 582.92 C 1339.92 600.91 1312.20 614.67 1282.82 625.11 Q 1240.70 640.08 1196.49 642.94 Q 1164.33 645.02 1135.74 642.00 C 1115.29 639.84 1094.45 634.34 1079.45 621.39 Q 1075.02 617.56 1069.27 611.23 Z" />
  <path fill="#f05e60" d="M 1316.95 182.44 L 1267.77 267.76 Q 1235.45 249.08 1198.75 248.58 Q 1160.03 248.05 1125.82 267.80 Q 1095.89 285.08 1076.95 316.47 L 1003.37 273.54 Q 1003.53 273.15 1004.01 273.12 Q 1010.29 272.80 1042.18 271.44 Q 1042.67 271.42 1042.98 271.03 C 1074.47 229.91 1119.62 202.91 1170.62 194.88 Q 1177.59 193.78 1190.47 192.71 Q 1253.71 187.48 1316.95 182.44 Z" />
  <path fill="#db5357" d="M 1316.95 182.44 Q 1345.24 242.29 1373.25 301.48 Q 1387.47 331.55 1391.13 363.84 Q 1397.03 415.82 1377.05 463.74 A 1.07 1.07 0 0 0 1377.09 464.66 L 1395.23 499.66 Q 1395.50 500.17 1394.94 500.30 Q 1394.69 500.35 1394.32 500.25 Q 1394.14 499.64 1393.01 498.99 Q 1356.91 478.12 1320.64 457.19 Q 1340.87 420.86 1338.14 381.06 C 1334.88 333.52 1308.96 291.73 1267.77 267.76 L 1316.95 182.44 Z" />
  <path fill="#020101" fill-opacity="0.078" d="M 1118.04 190.49 Q 1068.31 211.38 1033.71 252.73 Q 1033.38 253.11 1032.88 253.14 L 1018.37 253.88 Q 1029.20 244.76 1040.20 235.72 Q 1049.72 227.89 1055.98 223.41 C 1074.90 209.87 1095.78 197.50 1118.04 190.49 Z" />
  <path fill="#ffffff" d="M 1267.77 267.76 C 1308.96 291.73 1334.88 333.52 1338.14 381.06 Q 1340.87 420.86 1320.64 457.19 Q 1296.56 500.52 1250.04 517.99 Q 1232.48 524.59 1216.00 527.55 Q 1188.23 532.53 1157.50 533.82 Q 1135.74 534.74 1113.12 535.49 Q 1103.19 517.20 1093.41 498.31 C 1082.17 476.58 1071.44 453.54 1064.30 429.32 Q 1058.09 408.22 1057.60 387.81 Q 1056.85 356.74 1070.68 328.19 Q 1073.76 321.84 1076.95 316.47 Q 1095.89 285.08 1125.82 267.80 Q 1160.03 248.05 1198.75 248.58 Q 1235.45 249.08 1267.77 267.76 Z M 1118.60 340.39 C 1110.01 355.27 1107.74 373.28 1115.09 389.10 Q 1115.31 389.57 1115.05 390.02 Q 1108.80 400.91 1102.32 412.06 Q 1102.09 412.45 1102.15 412.65 Q 1102.20 412.85 1102.59 413.07 Q 1113.78 419.49 1124.63 425.80 Q 1125.08 426.06 1125.13 426.58 C 1126.67 443.95 1137.64 458.42 1152.52 467.01 C 1167.39 475.60 1185.40 477.87 1201.22 470.52 Q 1201.69 470.30 1202.14 470.56 Q 1213.03 476.81 1224.18 483.29 Q 1224.57 483.52 1224.77 483.47 Q 1224.98 483.42 1225.20 483.02 Q 1231.62 471.84 1237.93 460.98 Q 1238.19 460.53 1238.70 460.49 C 1256.08 458.95 1270.54 447.98 1279.14 433.10 C 1287.73 418.22 1290.00 400.21 1282.65 384.39 Q 1282.43 383.92 1282.69 383.47 Q 1288.94 372.58 1295.42 361.43 Q 1295.65 361.04 1295.59 360.84 Q 1295.54 360.64 1295.15 360.42 Q 1283.96 354.00 1273.11 347.69 Q 1272.66 347.43 1272.61 346.91 C 1271.07 329.54 1260.10 315.07 1245.22 306.48 C 1230.34 297.89 1212.33 295.62 1196.51 302.97 Q 1196.04 303.19 1195.59 302.93 Q 1184.70 296.68 1173.55 290.20 Q 1173.16 289.97 1172.96 290.02 Q 1172.76 290.07 1172.54 290.47 Q 1166.12 301.65 1159.81 312.51 Q 1159.55 312.96 1159.04 313.00 C 1141.66 314.54 1127.20 325.51 1118.60 340.39 Z" />
  <path fill="#234d69" d="M 1003.37 273.54 L 1076.95 316.47 Q 1073.76 321.84 1070.68 328.19 Q 1056.85 356.74 1057.60 387.81 Q 1058.09 408.22 1064.30 429.32 C 1071.44 453.54 1082.17 476.58 1093.41 498.31 Q 1103.19 517.20 1113.12 535.49 L 1080.29 591.89 Q 1053.46 538.11 1027.00 484.91 Q 1021.02 472.90 1018.50 466.85 C 997.47 416.41 998.13 359.30 1020.50 309.23 Q 1020.70 308.77 1020.47 308.31 L 1002.54 273.73 A 0.28 0.27 -22.2 0 1 1002.71 273.34 Q 1003.03 273.25 1003.37 273.54 Z" />
  <path fill="#38ba9b" d="M 1172.96 290.02 Q 1173.16 289.97 1173.55 290.20 Q 1184.70 296.68 1195.59 302.93 Q 1196.04 303.19 1196.51 302.97 C 1212.33 295.62 1230.34 297.89 1245.22 306.48 C 1260.10 315.07 1271.07 329.54 1272.61 346.91 Q 1272.66 347.43 1273.11 347.69 Q 1283.96 354.00 1295.15 360.42 Q 1295.54 360.64 1295.59 360.84 Q 1295.65 361.04 1295.42 361.43 Q 1288.94 372.58 1282.69 383.47 Q 1282.43 383.92 1282.65 384.39 C 1290.00 400.21 1287.73 418.22 1279.14 433.10 C 1270.54 447.98 1256.08 458.95 1238.70 460.49 Q 1238.19 460.53 1237.93 460.98 Q 1231.62 471.84 1225.20 483.02 Q 1224.98 483.42 1224.77 483.47 Q 1224.57 483.52 1224.18 483.29 Q 1213.03 476.81 1202.14 470.56 Q 1201.69 470.30 1201.22 470.52 C 1185.40 477.87 1167.39 475.60 1152.52 467.01 C 1137.64 458.42 1126.67 443.95 1125.13 426.58 Q 1125.08 426.06 1124.63 425.80 Q 1113.78 419.49 1102.59 413.07 Q 1102.20 412.85 1102.15 412.65 Q 1102.09 412.45 1102.32 412.06 Q 1108.80 400.91 1115.05 390.02 Q 1115.31 389.57 1115.09 389.10 C 1107.74 373.28 1110.01 355.27 1118.60 340.39 C 1127.20 325.51 1141.66 314.54 1159.04 313.00 Q 1159.55 312.96 1159.81 312.51 Q 1166.12 301.65 1172.54 290.47 Q 1172.76 290.07 1172.96 290.02 Z" />
  <path fill="#020101" fill-opacity="0.078" d="M 990.54 291.00 L 999.85 308.91 A 1.53 1.53 0 0 1 999.91 310.18 C 978.97 362.74 979.42 421.29 1001.20 473.74 Q 1003.99 480.46 1009.63 491.79 Q 1039.31 551.40 1069.12 610.96 Q 1051.94 600.59 1039.58 584.89 Q 1031.92 575.15 1027.47 568.08 Q 1004.22 531.19 990.48 488.51 Q 982.46 463.61 978.95 439.83 Q 967.75 364.08 990.54 291.00 Z" />
  <path fill="#173f58" d="M 1320.64 457.19 Q 1356.91 478.12 1393.01 498.99 Q 1394.14 499.64 1394.32 500.25 L 1355.99 502.02 Q 1355.49 502.04 1355.20 502.44 C 1322.75 547.05 1273.84 576.17 1219.09 583.10 Q 1212.69 583.92 1199.16 584.74 Q 1139.75 588.37 1080.29 591.89 L 1113.12 535.49 Q 1135.74 534.74 1157.50 533.82 Q 1188.23 532.53 1216.00 527.55 Q 1232.48 524.59 1250.04 517.99 Q 1296.56 500.52 1320.64 457.19 Z" />
</svg>