<?xml version="1.0" encoding="UTF-8" standalone="no"?>
<svg xmlns="http://www.w3.org/2000/svg" version="1.1" viewBox="0.00 0.00 250.00 250.00">
  <g stroke-width="2.00" fill="none" stroke-linecap="butt">
    <path stroke="#6f9bfe" vector-effect="non-scaling-stroke" d="   M 95.22 108.13   Q 94.87 108.22 94.47 108.51"></path>
    <path stroke="#2c72e5" vector-effect="non-scaling-stroke" d="   M 94.47 108.51   Q 94.81 107.42 94.62 106.86   Q 86.44 82.99 82.77 68.86   Q 80.89 61.63 86.49 55.97   A 0.24 0.24 0.0 0 0 86.40 55.57   Q 86.25 55.52 86.14 55.54"></path>
    <path stroke="#4380e5" vector-effect="non-scaling-stroke" d="   M 94.47 108.51   L 83.74 114.27   A 1.11 1.10 -23.2 0 0 83.21 115.58   C 87.83 130.50 96.67 144.57 106.93 156.57   Q 113.52 164.27 121.32 170.33   A 1.18 1.18 0.0 0 0 122.83 170.29   L 132.55 161.77"></path>
    <path stroke="#2c72e5" vector-effect="non-scaling-stroke" d="   M 132.55 161.77   Q 153.12 178.56 164.78 186.73   Q 169.35 189.92 177.80 188.79"></path>
    <path stroke="#6f9bfe" vector-effect="non-scaling-stroke" d="   M 132.60 161.60   L 132.55 161.77"></path>
  </g>
  <path fill="#578cfe" d="   M 95.22 108.13   Q 94.87 108.22 94.47 108.51   Q 94.81 107.42 94.62 106.86   Q 86.44 82.99 82.77 68.86   Q 80.89 61.63 86.49 55.97   A 0.24 0.24 0.0 0 0 86.40 55.57   Q 86.25 55.52 86.14 55.54   C 93.19 49.31 103.70 49.49 108.46 58.36   Q 116.24 72.89 117.42 75.05   C 121.44 82.43 123.68 87.58 119.22 94.16   Q 117.64 96.49 108.67 101.10   Q 101.96 104.55 95.22 108.13   Z"></path>
  <path fill="#0057cb" d="   M 86.14 55.54   Q 86.25 55.52 86.40 55.57   A 0.24 0.24 0.0 0 1 86.49 55.97   Q 80.89 61.63 82.77 68.86   Q 86.44 82.99 94.62 106.86   Q 94.81 107.42 94.47 108.51   L 83.74 114.27   A 1.11 1.10 -23.2 0 0 83.21 115.58   C 87.83 130.50 96.67 144.57 106.93 156.57   Q 113.52 164.27 121.32 170.33   A 1.18 1.18 0.0 0 0 122.83 170.29   L 132.55 161.77   Q 153.12 178.56 164.78 186.73   Q 169.35 189.92 177.80 188.79   C 156.96 201.95 132.97 199.82 112.44 187.57   C 82.55 169.72 60.49 133.34 62.75 98.51   Q 64.46 72.17 85.44 55.98   Q 85.85 55.66 86.14 55.54   Z"></path>
  <path fill="#86a9fe" d="   M 95.22 108.13   Q 96.38 111.88 97.36 114.19   Q 109.05 141.77 131.74 161.27   A 0.51 0.38 -8.6 0 0 131.91 161.36   L 132.60 161.60   L 132.55 161.77   L 122.83 170.29   A 1.18 1.18 0.0 0 1 121.32 170.33   Q 113.52 164.27 106.93 156.57   C 96.67 144.57 87.83 130.50 83.21 115.58   A 1.11 1.10 -23.2 0 1 83.74 114.27   L 94.47 108.51   Q 94.87 108.22 95.22 108.13   Z"></path>
  <path fill="#578cfe" d="   M 177.80 188.79   Q 169.35 189.92 164.78 186.73   Q 153.12 178.56 132.55 161.77   L 132.60 161.60   Q 138.68 156.15 144.68 150.57   Q 151.17 144.54 153.88 143.81   C 160.38 142.07 164.88 144.95 169.61 150.25   Q 170.13 150.82 183.26 165.48   Q 190.87 173.97 184.62 183.57   Q 183.33 185.55 177.80 188.79   Z"></path>
</svg>
