<?xml version="1.0" encoding="UTF-8" standalone="no"?>
<svg xmlns="http://www.w3.org/2000/svg" version="1.1" viewBox="0.00 0.00 512.00 513.00">
  <g stroke-width="2.00" fill="none" stroke-linecap="butt">
    <path stroke="#f5f5f5" stroke-opacity="0.576" vector-effect="non-scaling-stroke" d="   M 38.54 468.46   L 38.09 471.05"></path>
    <path stroke="#f2f2f2" stroke-opacity="0.604" vector-effect="non-scaling-stroke" d="   M 38.09 471.05   L 43.23 469.80"></path>
    <path stroke="#efefef" stroke-opacity="0.639" vector-effect="non-scaling-stroke" d="   M 41.08 459.29   L 39.72 463.99"></path>
    <path stroke="#e9e9e8" stroke-opacity="0.710" vector-effect="non-scaling-stroke" d="   M 288.78 40.07   Q 342.59 48.85 385.70 81.87"></path>
    <path stroke="#e7e7e7" stroke-opacity="0.737" vector-effect="non-scaling-stroke" d="   M 385.70 81.87   Q 427.89 114.68 450.40 163.04"></path>
    <path stroke="#e5e5e5" stroke-opacity="0.761" vector-effect="non-scaling-stroke" d="   M 450.40 163.04   L 456.25 177.04"></path>
    <path stroke="#e7e7e7" stroke-opacity="0.737" vector-effect="non-scaling-stroke" d="   M 456.25 177.04   L 456.42 177.55"></path>
    <path stroke="#e5e5e5" stroke-opacity="0.761" vector-effect="non-scaling-stroke" d="   M 456.42 177.55   L 459.99 188.08"></path>
    <path stroke="#e7e7e7" stroke-opacity="0.737" vector-effect="non-scaling-stroke" d="   M 459.99 188.08   L 460.26 188.97"></path>
    <path stroke="#e5e5e5" stroke-opacity="0.761" vector-effect="non-scaling-stroke" d="   M 460.26 188.97   Q 465.61 206.87 467.99 225.24"></path>
    <path stroke="#e3e3e3" stroke-opacity="0.780" vector-effect="non-scaling-stroke" d="   M 467.99 225.24   Q 473.79 272.47 460.07 316.06   C 443.15 369.79 405.82 415.36 356.48 441.72   Q 295.42 474.33 225.75 465.50   Q 212.91 463.87 196.97 459.54"></path>
    <path stroke="#e7e7e7" stroke-opacity="0.737" vector-effect="non-scaling-stroke" d="   M 196.97 459.54   Q 181.20 455.11 166.29 448.42"></path>
    <path stroke="#e3e3e3" stroke-opacity="0.780" vector-effect="non-scaling-stroke" d="   M 166.29 448.42   L 152.64 441.65   A 2.22 2.21 -39.4 0 0 151.08 441.50   L 55.03 466.68"></path>
    <path stroke="#e5e5e5" stroke-opacity="0.761" vector-effect="non-scaling-stroke" d="   M 55.03 466.68   Q 54.46 466.76 54.05 466.99"></path>
    <path stroke="#e7e7e7" stroke-opacity="0.737" vector-effect="non-scaling-stroke" d="   M 54.05 466.99   L 50.26 468.03"></path>
    <path stroke="#e9e9e8" stroke-opacity="0.710" vector-effect="non-scaling-stroke" d="   M 50.26 468.03   Q 48.89 468.14 47.57 468.69"></path>
    <path stroke="#eaeaea" stroke-opacity="0.694" vector-effect="non-scaling-stroke" d="   M 47.57 468.69   Q 46.76 468.67 46.55 469.12"></path>
    <path stroke="#f2f2f2" stroke-opacity="0.604" vector-effect="non-scaling-stroke" d="   M 38.54 468.46   Q 38.79 468.01 38.81 467.52"></path>
    <path stroke="#f1f1f1" stroke-opacity="0.620" vector-effect="non-scaling-stroke" d="   M 38.81 467.52   L 39.72 463.99"></path>
    <path stroke="#ededed" stroke-opacity="0.655" vector-effect="non-scaling-stroke" d="   M 41.08 459.29   L 42.32 454.84"></path>
    <path stroke="#ebebeb" stroke-opacity="0.671" vector-effect="non-scaling-stroke" d="   M 42.32 454.84   L 62.88 379.80"></path>
    <path stroke="#eaeaea" stroke-opacity="0.694" vector-effect="non-scaling-stroke" d="   M 62.88 379.80   L 65.38 370.51"></path>
    <path stroke="#e9e9e8" stroke-opacity="0.710" vector-effect="non-scaling-stroke" d="   M 65.38 370.51   L 68.15 360.26   Q 68.28 359.78 68.03 359.34   Q 51.49 329.92 44.30 297.00"></path>
    <path stroke="#eaeaea" stroke-opacity="0.694" vector-effect="non-scaling-stroke" d="   M 44.30 297.00   Q 40.38 277.90 39.75 258.47"></path>
    <path stroke="#ededed" stroke-opacity="0.655" vector-effect="non-scaling-stroke" d="   M 43.23 469.80   L 46.55 469.12"></path>
    <path stroke="#ededed" stroke-opacity="0.655" vector-effect="non-scaling-stroke" d="   M 230.54 38.76   Q 206.17 41.58 183.04 49.69"></path>
    <path stroke="#ebebeb" stroke-opacity="0.671" vector-effect="non-scaling-stroke" d="   M 183.04 49.69   Q 142.33 64.31 110.35 93.35   Q 78.96 121.85 60.96 159.21   Q 38.52 205.77 39.75 258.47"></path>
    <path stroke="#eaeaea" stroke-opacity="0.694" vector-effect="non-scaling-stroke" d="   M 288.78 40.07   Q 259.77 35.64 230.54 38.76"></path>
    <path stroke="#a6e5ad" vector-effect="non-scaling-stroke" d="   M 112.40 144.45   Q 101.18 159.26 93.20 176.00"></path>
    <path stroke="#a3e4ab" vector-effect="non-scaling-stroke" d="   M 93.20 176.00   Q 86.62 189.87 82.56 204.47"></path>
    <path stroke="#a1e2a9" vector-effect="non-scaling-stroke" d="   M 82.56 204.47   Q 78.43 219.26 76.95 234.21"></path>
    <path stroke="#9ee1a7" vector-effect="non-scaling-stroke" d="   M 76.95 234.21   Q 75.39 249.69 76.44 265.05"></path>
    <path stroke="#9adea4" vector-effect="non-scaling-stroke" d="   M 76.44 265.05   Q 78.60 295.25 90.51 323.04"></path>
    <path stroke="#95dca0" vector-effect="non-scaling-stroke" d="   M 90.51 323.04   Q 97.50 339.05 107.11 353.31   Q 107.62 354.06 107.38 354.93   L 101.50 376.35"></path>
    <path stroke="#92da9d" vector-effect="non-scaling-stroke" d="   M 101.50 376.35   L 89.64 419.64   A 0.28 0.28 0.0 0 0 89.98 419.98   L 156.38 402.57   Q 156.97 402.42 157.51 402.72   Q 165.63 407.26 168.86 409.06   Q 205.30 429.38 248.51 430.90   Q 284.08 432.15 316.74 419.99   Q 355.29 405.65 384.09 375.50"></path>
    <path stroke="#95dca0" vector-effect="non-scaling-stroke" d="   M 384.09 375.50   Q 408.50 349.75 421.37 316.78"></path>
    <path stroke="#9bdfa5" vector-effect="non-scaling-stroke" d="   M 421.37 316.78   Q 431.03 291.72 432.89 265.06"></path>
    <path stroke="#9ee1a7" vector-effect="non-scaling-stroke" d="   M 432.89 265.06   Q 433.91 250.95 432.71 236.99"></path>
    <path stroke="#a1e2a9" vector-effect="non-scaling-stroke" d="   M 432.71 236.99   Q 431.22 218.95 426.07 201.68"></path>
    <path stroke="#a3e4ab" vector-effect="non-scaling-stroke" d="   M 426.07 201.68   Q 421.54 186.18 414.18 171.69"></path>
    <path stroke="#a6e5ad" vector-effect="non-scaling-stroke" d="   M 414.18 171.69   Q 406.02 155.57 394.78 141.44"></path>
    <path stroke="#a9e7b0" vector-effect="non-scaling-stroke" d="   M 394.78 141.44   Q 370.26 110.75 337.56 93.93   Q 277.26 62.90 211.01 79.22   C 171.59 88.92 137.18 112.32 112.40 144.45"></path>
    <path stroke="#50cd5e" vector-effect="non-scaling-stroke" d="   M 394.78 141.44   Q 367.24 142.79 356.52 142.79   Q 300.46 142.78 244.40 143.68   Q 234.21 143.84 224.40 143.85   Q 182.21 143.86 140.02 144.17   Q 126.32 144.27 112.40 144.45"></path>
    <path stroke="#4aca59" vector-effect="non-scaling-stroke" d="   M 414.18 171.69   Q 383.84 173.07 358.94 173.03   Q 274.96 172.89 205.90 173.95"></path>
    <path stroke="#a6e5ad" vector-effect="non-scaling-stroke" d="   M 205.90 173.95   Q 203.51 168.55 201.10 162.89   Q 199.59 159.36 197.56 156.93   C 195.20 154.09 192.82 153.42 188.90 153.26   Q 181.13 152.95 178.50 153.07   Q 170.39 153.47 164.74 159.25   Q 159.37 164.74 154.97 170.97"></path>
    <path stroke="#4aca59" vector-effect="non-scaling-stroke" d="   M 154.97 170.97   C 134.80 173.36 116.93 174.51 93.20 176.00"></path>
    <path stroke="#45c754" vector-effect="non-scaling-stroke" d="   M 426.07 201.68   Q 351.82 203.07 261.16 203.23   Q 241.15 203.26 218.91 205.53"></path>
    <path stroke="#45c754" vector-effect="non-scaling-stroke" d="   M 145.45 203.06   Q 114.09 205.38 82.56 204.47"></path>
    <path stroke="#a3e4ab" vector-effect="non-scaling-stroke" d="   M 205.90 173.95   L 218.91 205.53"></path>
    <path stroke="#a1e2a9" vector-effect="non-scaling-stroke" d="   M 218.91 205.53   Q 218.66 213.67 212.21 221.22   Q 204.66 230.05 202.65 232.23"></path>
    <path stroke="#9ee1a7" vector-effect="non-scaling-stroke" d="   M 202.65 232.23   Q 199.45 235.81 201.52 239.72   Q 207.66 251.35 218.11 263.66"></path>
    <path stroke="#9bdfa5" vector-effect="non-scaling-stroke" d="   M 218.11 263.66   Q 237.85 287.41 265.48 300.51   Q 273.88 304.50 278.05 306.02   Q 283.29 307.93 287.01 303.52   Q 299.78 288.41 304.43 281.96   C 306.20 279.51 308.54 278.00 311.28 278.57   Q 315.08 279.37 316.86 280.18   Q 336.87 289.24 359.97 301.04   C 361.84 301.99 363.25 303.25 363.50 305.53   Q 364.11 311.21 363.00 317.13"></path>
    <path stroke="#95dca0" vector-effect="non-scaling-stroke" d="   M 363.00 317.13   Q 361.95 322.96 360.47 327.45   C 356.70 338.87 344.29 346.99 333.34 351.83   Q 326.41 354.90 317.20 355.36   Q 307.33 355.85 300.46 354.34   Q 278.63 349.56 255.53 339.72   Q 238.65 332.52 222.71 320.44"></path>
    <path stroke="#9adea4" vector-effect="non-scaling-stroke" d="   M 222.71 320.44   Q 190.93 295.63 168.71 261.97"></path>
    <path stroke="#9ee1a7" vector-effect="non-scaling-stroke" d="   M 168.71 261.97   Q 158.38 248.42 151.90 233.34"></path>
    <path stroke="#a1e2a9" vector-effect="non-scaling-stroke" d="   M 151.90 233.34   Q 145.48 218.55 145.45 203.06"></path>
    <path stroke="#a3e4ab" vector-effect="non-scaling-stroke" d="   M 145.45 203.06   Q 145.74 185.55 154.97 170.97"></path>
    <path stroke="#40c450" vector-effect="non-scaling-stroke" d="   M 432.71 236.99   Q 417.98 232.84 404.00 232.39   Q 387.24 231.86 365.86 232.17   Q 329.92 232.70 293.99 233.05   Q 272.15 233.26 221.86 232.70   Q 212.35 232.60 202.65 232.23"></path>
    <path stroke="#40c450" vector-effect="non-scaling-stroke" d="   M 151.90 233.34   L 76.95 234.21"></path>
    <path stroke="#3ac14c" vector-effect="non-scaling-stroke" d="   M 432.89 265.06   Q 417.32 262.37 399.07 262.24   Q 343.65 261.87 299.95 262.64   Q 288.95 262.83 279.95 262.90   Q 249.17 263.13 218.11 263.66"></path>
    <path stroke="#28b63e" vector-effect="non-scaling-stroke" d="   M 384.09 375.50   Q 364.80 374.73 351.56 374.76   Q 298.69 374.91 245.82 374.90   Q 235.80 374.90 225.82 375.02   Q 163.68 375.77 101.50 376.35"></path>
    <path stroke="#31bc46" vector-effect="non-scaling-stroke" d="   M 421.37 316.78   Q 392.28 313.86 363.00 317.13"></path>
    <path stroke="#30bb45" vector-effect="non-scaling-stroke" d="   M 222.71 320.44   Q 197.99 321.98 185.73 322.01   Q 149.48 322.08 113.23 322.54   Q 101.91 322.69 90.51 323.04"></path>
    <path stroke="#39c04b" vector-effect="non-scaling-stroke" d="   M 168.71 261.97   Q 132.66 263.90 97.03 264.32   Q 86.80 264.43 76.44 265.05"></path>
  </g>
  <path fill="#b3b3b4" fill-opacity="0.039" d="   M 45.41 359.26   C 43.55 348.27 37.96 334.71 35.33 326.26   C 19.89 276.68 20.41 224.24 38.01 175.42   Q 51.96 136.72 78.61 104.93   C 119.92 55.65 179.30 25.98 243.72 22.44   C 311.44 18.72 376.24 43.40 423.50 91.98   Q 440.12 109.07 451.55 126.58   C 504.56 207.79 501.99 313.76 444.77 392.13   C 387.03 471.23 286.10 504.83 192.20 478.31   C 184.64 476.17 173.78 472.24 165.18 469.93   C 150.57 465.99 137.42 467.23 122.75 470.93   Q 79.15 481.96 77.57 482.35   C 63.70 485.84 41.93 489.79 32.38 475.60   C 27.63 468.54 27.47 458.49 28.67 449.97   Q 29.97 440.82 33.11 429.40   Q 33.76 427.00 43.57 389.97   Q 47.87 373.73 45.41 359.26   Z   M 49.80 362.14   Q 50.95 374.38 47.94 386.77   Q 43.95 403.21 37.52 425.98   Q 34.63 436.22 32.55 446.93   C 30.79 455.99 30.35 468.44 37.59 475.67   C 43.30 481.37 52.50 482.55 60.32 481.76   Q 69.73 480.81 77.62 478.79   Q 96.74 473.90 117.74 468.41   Q 124.88 466.55 133.95 464.93   Q 152.39 461.65 170.05 467.58   Q 189.24 474.01 196.86 475.96   Q 249.09 489.29 298.84 480.00   C 394.12 462.20 468.71 385.92 483.33 289.95   Q 490.37 243.79 479.04 197.80   C 470.73 164.04 454.05 132.43 431.61 105.99   C 365.87 28.50 256.34 4.01 163.66 45.19   C 102.36 72.42 55.29 125.71 36.85 190.31   Q 17.67 257.52 38.43 324.42   Q 39.66 328.37 43.52 339.03   Q 47.37 349.67 48.29 353.77   Q 49.54 359.37 49.80 362.14   Z"></path>
  <path fill="#b3b3b3" fill-opacity="0.086" d="   M 49.80 362.14   Q 49.54 359.37 48.29 353.77   Q 47.37 349.67 43.52 339.03   Q 39.66 328.37 38.43 324.42   Q 17.67 257.52 36.85 190.31   C 55.29 125.71 102.36 72.42 163.66 45.19   C 256.34 4.01 365.87 28.50 431.61 105.99   C 454.05 132.43 470.73 164.04 479.04 197.80   Q 490.37 243.79 483.33 289.95   C 468.71 385.92 394.12 462.20 298.84 480.00   Q 249.09 489.29 196.86 475.96   Q 189.24 474.01 170.05 467.58   Q 152.39 461.65 133.95 464.93   Q 124.88 466.55 117.74 468.41   Q 96.74 473.90 77.62 478.79   Q 69.73 480.81 60.32 481.76   C 52.50 482.55 43.30 481.37 37.59 475.67   C 30.35 468.44 30.79 455.99 32.55 446.93   Q 34.63 436.22 37.52 425.98   Q 43.95 403.21 47.94 386.77   Q 50.95 374.38 49.80 362.14   Z   M 54.78 360.03   Q 56.25 370.16 54.07 378.03   Q 48.38 398.53 42.97 419.10   Q 41.90 423.16 38.70 433.77   Q 37.27 438.48 34.87 448.60   C 33.25 455.38 32.41 463.61 34.87 470.24   C 36.66 475.09 40.82 478.55 45.68 479.55   Q 54.79 481.42 63.58 479.42   Q 72.39 477.41 84.28 474.15   Q 97.94 470.40 137.23 459.55   Q 145.03 457.40 152.65 458.17   Q 157.45 458.66 167.31 462.19   Q 186.71 469.12 191.55 470.54   Q 244.70 486.05 298.84 476.42   Q 308.67 474.67 318.28 471.88   Q 337.59 466.27 356.58 456.85   Q 360.14 455.08 369.75 449.89   Q 377.71 445.60 382.55 442.30   Q 391.32 436.35 399.20 429.26   Q 409.47 420.02 409.78 419.74   Q 416.58 413.73 422.50 407.26   Q 434.12 394.59 445.40 377.89   Q 451.38 369.03 459.53 352.95   Q 463.23 345.66 467.23 334.50   Q 473.63 316.68 474.96 311.33   C 485.50 268.95 484.43 224.43 470.49 183.08   Q 467.16 173.21 464.08 165.97   Q 449.12 130.75 424.49 104.40   Q 423.64 103.49 414.22 93.45   Q 408.18 87.00 402.99 82.51   Q 384.63 66.66 366.61 57.25   Q 350.33 48.76 346.38 47.11   Q 323.04 37.34 303.35 33.51   Q 278.80 28.73 259.07 28.52   Q 227.79 28.18 195.73 36.89   C 182.77 40.41 170.77 45.61 158.50 51.19   Q 148.26 55.86 141.18 60.25   Q 124.24 70.75 114.17 78.94   Q 102.43 88.51 87.43 104.82   Q 82.10 110.62 75.95 118.95   Q 66.49 131.76 65.28 133.76   C 56.14 148.89 48.35 164.16 42.88 181.03   Q 37.16 198.67 35.97 204.20   Q 28.69 238.10 30.96 272.71   Q 32.60 297.56 40.49 321.36   Q 45.42 336.20 53.42 355.67   Q 54.54 358.40 54.78 360.03   Z"></path>
  <path fill="#b3b3b3" fill-opacity="0.149" d="   M 54.78 360.03   Q 54.54 358.40 53.42 355.67   Q 45.42 336.20 40.49 321.36   Q 32.60 297.56 30.96 272.71   Q 28.69 238.10 35.97 204.20   Q 37.16 198.67 42.88 181.03   C 48.35 164.16 56.14 148.89 65.28 133.76   Q 66.49 131.76 75.95 118.95   Q 82.10 110.62 87.43 104.82   Q 102.43 88.51 114.17 78.94   Q 124.24 70.75 141.18 60.25   Q 148.26 55.86 158.50 51.19   C 170.77 45.61 182.77 40.41 195.73 36.89   Q 227.79 28.18 259.07 28.52   Q 278.80 28.73 303.35 33.51   Q 323.04 37.34 346.38 47.11   Q 350.33 48.76 366.61 57.25   Q 384.63 66.66 402.99 82.51   Q 408.18 87.00 414.22 93.45   Q 423.64 103.49 424.49 104.40   Q 449.12 130.75 464.08 165.97   Q 467.16 173.21 470.49 183.08   C 484.43 224.43 485.50 268.95 474.96 311.33   Q 473.63 316.68 467.23 334.50   Q 463.23 345.66 459.53 352.95   Q 451.38 369.03 445.40 377.89   Q 434.12 394.59 422.50 407.26   Q 416.58 413.73 409.78 419.74   Q 409.47 420.02 399.20 429.26   Q 391.32 436.35 382.55 442.30   Q 377.71 445.60 369.75 449.89   Q 360.14 455.08 356.58 456.85   Q 337.59 466.27 318.28 471.88   Q 308.67 474.67 298.84 476.42   Q 244.70 486.05 191.55 470.54   Q 186.71 469.12 167.31 462.19   Q 157.45 458.66 152.65 458.17   Q 145.03 457.40 137.23 459.55   Q 97.94 470.40 84.28 474.15   Q 72.39 477.41 63.58 479.42   Q 54.79 481.42 45.68 479.55   C 40.82 478.55 36.66 475.09 34.87 470.24   C 32.41 463.61 33.25 455.38 34.87 448.60   Q 37.27 438.48 38.70 433.77   Q 41.90 423.16 42.97 419.10   Q 48.38 398.53 54.07 378.03   Q 56.25 370.16 54.78 360.03   Z   M 41.57 312.32   Q 46.92 331.19 55.32 349.09   Q 61.73 362.76 58.61 376.14   Q 57.18 382.29 51.71 399.79   Q 50.52 402.40 49.79 405.18   Q 45.09 423.17 40.48 441.29   L 38.57 448.67   Q 35.38 458.83 38.54 468.46   L 38.09 471.05   Q 46.12 479.09 58.17 477.44   Q 65.39 476.45 71.48 474.91   Q 94.56 469.09 135.31 458.25   Q 146.86 455.17 155.58 456.68   Q 159.81 457.41 167.95 460.78   Q 182.81 466.93 195.26 470.45   Q 250.14 485.99 306.97 473.48   Q 315.98 471.50 326.19 468.03   Q 338.09 463.98 346.31 460.47   Q 363.55 453.10 383.98 439.47   Q 388.85 436.23 393.16 432.58   Q 401.54 425.49 401.92 425.15   C 415.33 413.39 427.86 399.93 438.13 385.06   Q 444.81 375.40 448.27 369.76   Q 477.77 321.77 480.01 265.38   Q 481.01 240.23 477.65 218.17   C 476.71 212.00 474.91 205.66 473.62 199.80   C 469.90 183.01 463.48 167.36 454.75 150.27   C 449.00 139.00 444.20 130.10 436.69 120.79   Q 430.61 113.25 424.61 105.64   Q 420.97 101.03 408.68 89.83   C 403.65 85.25 395.57 77.96 388.68 72.68   Q 382.75 68.12 380.81 66.98   C 372.33 62.01 365.21 57.69 357.62 53.97   Q 326.03 38.49 290.68 32.72   Q 280.74 31.09 270.86 30.72   Q 252.87 30.05 241.00 30.83   Q 212.42 32.70 184.00 42.80   Q 154.29 53.37 130.17 70.00   Q 124.40 73.98 119.29 78.03   Q 112.66 83.29 108.78 86.55   C 98.18 95.44 88.97 105.82 79.84 117.20   Q 74.45 123.92 70.72 129.71   Q 66.36 136.50 62.86 143.08   Q 54.36 159.04 48.00 175.79   Q 44.32 185.49 41.76 194.77   Q 26.63 249.56 39.52 305.69   Q 40.11 308.26 41.57 312.32   Z"></path>
  <path fill="#b3b3b3" fill-opacity="0.208" d="   M 38.09 471.05   L 43.23 469.80   C 49.05 474.29 56.79 474.62 63.56 473.17   C 71.01 471.59 78.82 469.50 90.39 466.26   Q 97.02 464.40 102.64 463.20   C 114.28 460.70 125.63 457.57 136.32 454.88   Q 147.71 452.00 157.15 453.83   Q 161.50 454.68 171.44 458.58   Q 183.22 463.22 185.51 464.01   Q 231.82 480.01 281.01 474.51   Q 313.61 470.87 343.15 458.23   Q 348.93 455.76 357.75 451.00   Q 368.04 445.45 372.09 443.26   Q 380.20 438.87 389.27 431.54   Q 403.51 420.02 412.52 411.31   Q 419.40 404.65 432.90 387.41   Q 444.82 372.19 455.33 351.32   Q 465.40 331.31 471.95 304.39   Q 473.54 298.61 474.50 292.90   Q 479.77 261.37 476.11 229.71   L 474.82 219.97   Q 473.41 207.71 468.35 190.43   Q 463.59 174.14 459.19 165.38   Q 454.51 156.06 449.87 146.70   L 459.59 165.36   Q 459.67 165.51 459.83 165.45   L 460.10 165.36   Q 460.36 165.27 460.25 165.02   Q 453.06 148.15 442.27 133.44   L 430.02 115.99   Q 425.12 109.70 417.56 101.44   Q 411.78 95.13 406.24 90.77   C 396.74 80.94 385.74 73.55 374.28 66.21   Q 371.27 64.29 367.96 62.69   Q 360.08 58.32 344.32 51.38   Q 314.03 38.05 284.36 34.92   Q 274.03 33.83 264.43 33.44   Q 229.29 32.04 194.28 42.17   Q 186.17 44.52 175.49 48.97   Q 161.34 54.86 154.35 58.31   Q 145.51 62.66 133.98 70.71   Q 128.08 73.92 124.45 76.69   Q 119.04 80.82 109.78 88.67   Q 101.94 95.31 96.01 101.64   Q 69.93 129.46 55.21 161.43   Q 26.84 223.05 37.49 291.30   Q 38.23 296.04 41.57 312.32   Q 40.11 308.26 39.52 305.69   Q 26.63 249.56 41.76 194.77   Q 44.32 185.49 48.00 175.79   Q 54.36 159.04 62.86 143.08   Q 66.36 136.50 70.72 129.71   Q 74.45 123.92 79.84 117.20   C 88.97 105.82 98.18 95.44 108.78 86.55   Q 112.66 83.29 119.29 78.03   Q 124.40 73.98 130.17 70.00   Q 154.29 53.37 184.00 42.80   Q 212.42 32.70 241.00 30.83   Q 252.87 30.05 270.86 30.72   Q 280.74 31.09 290.68 32.72   Q 326.03 38.49 357.62 53.97   C 365.21 57.69 372.33 62.01 380.81 66.98   Q 382.75 68.12 388.68 72.68   C 395.57 77.96 403.65 85.25 408.68 89.83   Q 420.97 101.03 424.61 105.64   Q 430.61 113.25 436.69 120.79   C 444.20 130.10 449.00 139.00 454.75 150.27   C 463.48 167.36 469.90 183.01 473.62 199.80   C 474.91 205.66 476.71 212.00 477.65 218.17   Q 481.01 240.23 480.01 265.38   Q 477.77 321.77 448.27 369.76   Q 444.81 375.40 438.13 385.06   C 427.86 399.93 415.33 413.39 401.92 425.15   Q 401.54 425.49 393.16 432.58   Q 388.85 436.23 383.98 439.47   Q 363.55 453.10 346.31 460.47   Q 338.09 463.98 326.19 468.03   Q 315.98 471.50 306.97 473.48   Q 250.14 485.99 195.26 470.45   Q 182.81 466.93 167.95 460.78   Q 159.81 457.41 155.58 456.68   Q 146.86 455.17 135.31 458.25   Q 94.56 469.09 71.48 474.91   Q 65.39 476.45 58.17 477.44   Q 46.12 479.09 38.09 471.05   Z"></path>
  <path fill="#b3b3b3" fill-opacity="0.275" d="   M 367.96 62.69   L 380.52 71.77   Q 362.31 60.10 346.82 53.21   Q 327.87 44.78 303.58 39.09   Q 291.23 36.19 282.61 35.49   Q 270.76 34.52 257.22 34.45   Q 222.16 34.25 188.91 45.18   Q 181.79 47.52 177.06 49.80   L 149.55 62.76   Q 141.63 66.81 134.47 72.03   Q 119.92 82.56 111.48 89.99   Q 90.32 108.58 73.37 133.92   Q 65.87 144.48 60.50 156.28   Q 55.85 164.25 53.01 173.05   Q 47.70 186.10 44.12 199.72   Q 42.43 204.50 41.21 210.71   Q 36.65 234.06 36.87 256.97   Q 36.93 263.17 37.82 269.28   L 38.94 281.77   Q 41.36 308.11 51.33 332.63   L 56.44 344.62   C 60.72 355.07 63.38 363.04 61.40 374.07   Q 59.84 382.75 51.88 411.70   Q 43.03 443.84 42.12 447.45   Q 40.77 452.83 41.08 459.29   L 39.72 463.99   Q 38.70 455.52 41.03 446.36   Q 46.35 425.41 48.92 416.61   Q 51.22 408.74 53.16 400.78   C 55.22 392.38 59.53 379.67 60.47 369.32   C 61.18 361.63 59.17 354.52 55.72 347.03   C 53.75 342.76 50.86 336.46 49.17 331.53   Q 41.06 307.79 37.89 286.50   Q 31.84 245.85 41.58 204.34   Q 51.63 161.50 77.48 125.69   Q 81.56 120.04 87.52 113.19   Q 94.90 104.70 98.23 101.23   Q 106.16 92.96 118.15 83.18   Q 125.95 76.83 133.98 70.71   Q 145.51 62.66 154.35 58.31   Q 161.34 54.86 175.49 48.97   Q 186.17 44.52 194.28 42.17   Q 229.29 32.04 264.43 33.44   Q 274.03 33.83 284.36 34.92   Q 314.03 38.05 344.32 51.38   Q 360.08 58.32 367.96 62.69   Z"></path>
  <path fill="#b3b3b3" fill-opacity="0.306" d="   M 380.52 71.77   L 392.73 80.31   L 406.24 90.77   Q 411.73 96.60 417.27 102.34   Q 418.78 103.91 418.66 104.90   Q 423.33 112.11 429.56 118.83   L 433.06 122.44   Q 460.87 159.67 471.49 205.19   Q 473.21 212.55 474.82 219.97   L 476.11 229.71   Q 476.64 241.10 477.06 252.50   Q 477.42 262.05 475.85 277.02   Q 475.08 284.37 471.95 304.39   Q 465.40 331.31 455.33 351.32   Q 444.82 372.19 432.90 387.41   Q 419.40 404.65 412.52 411.31   Q 403.51 420.02 389.27 431.54   Q 380.20 438.87 372.09 443.26   Q 368.04 445.45 357.75 451.00   Q 348.93 455.76 343.15 458.23   Q 313.61 470.87 281.01 474.51   Q 231.82 480.01 185.51 464.01   Q 183.22 463.22 171.44 458.58   Q 161.50 454.68 157.15 453.83   Q 147.71 452.00 136.32 454.88   C 125.63 457.57 114.28 460.70 102.64 463.20   Q 97.02 464.40 90.39 466.26   C 78.82 469.50 71.01 471.59 63.56 473.17   C 56.79 474.62 49.05 474.29 43.23 469.80   L 46.55 469.12   Q 56.25 472.67 66.76 469.85   Q 102.30 460.31 138.18 451.73   C 147.25 449.55 154.57 450.21 163.27 452.68   C 172.21 455.22 181.11 459.90 189.89 462.60   Q 209.87 468.72 228.80 471.27   Q 259.56 475.40 291.57 470.44   Q 298.55 469.35 308.72 466.58   Q 321.11 463.19 325.64 461.72   Q 335.82 458.41 350.70 451.78   Q 358.38 448.35 366.69 443.38   Q 379.14 435.94 382.06 433.83   Q 404.52 417.70 422.56 396.84   C 427.54 391.10 432.85 383.75 437.96 377.19   Q 442.10 371.88 447.57 359.52   L 451.32 352.52   Q 457.18 343.57 459.77 333.22   Q 462.63 327.56 464.17 322.61   Q 467.01 313.50 470.24 300.80   L 466.07 317.38   Q 466.02 317.56 466.22 317.67   L 466.23 317.68   Q 466.44 317.80 466.53 317.53   C 472.45 300.60 475.45 282.56 476.01 264.72   Q 476.96 234.60 470.95 207.13   Q 470.69 205.93 469.17 201.79   L 467.42 195.04   Q 465.97 188.16 463.57 181.48   Q 453.45 153.35 436.48 128.75   Q 434.93 126.49 431.58 123.01   Q 419.95 107.17 403.57 92.17   Q 397.79 86.89 393.40 84.14   Q 384.45 76.52 374.56 70.46   Q 367.04 64.80 358.45 61.15   Q 347.45 55.22 335.70 51.45   L 324.80 47.38   Q 304.61 40.32 290.48 38.90   Q 280.00 37.85 269.55 36.55   Q 262.28 35.64 246.21 36.35   Q 237.10 36.75 230.54 38.76   Q 206.17 41.58 183.04 49.69   Q 187.42 47.26 192.31 45.85   Q 204.26 42.39 216.81 39.78   Q 227.64 37.53 236.60 36.73   Q 280.05 32.85 320.80 45.35   Q 333.32 49.19 348.83 55.84   Q 348.96 55.89 349.09 55.73   L 349.09 55.72   A 0.20 0.16 29.5 0 0 348.99 55.46   Q 285.52 26.18 217.14 38.70   Q 198.21 42.16 177.06 49.80   Q 181.79 47.52 188.91 45.18   Q 222.16 34.25 257.22 34.45   Q 270.76 34.52 282.61 35.49   Q 291.23 36.19 303.58 39.09   Q 327.87 44.78 346.82 53.21   Q 362.31 60.10 380.52 71.77   Z   M 398.07 85.83   C 406.05 93.16 410.39 97.09 416.65 103.63   Q 416.81 103.80 416.98 103.64   L 416.99 103.63   Q 417.17 103.46 417.10 103.39   Q 410.86 96.67 404.38 90.17   C 402.77 88.56 400.35 86.81 398.29 85.34   Q 398.28 85.34 398.27 85.34   L 398.07 85.55   A 0.19 0.19 0.0 0 0 398.07 85.83   Z"></path>
  <path fill="#b0b0b0" fill-opacity="0.337" d="   M 183.04 49.69   Q 142.33 64.31 110.35 93.35   Q 78.96 121.85 60.96 159.21   Q 38.52 205.77 39.75 258.47   Q 39.04 265.78 39.39 270.42   Q 41.46 297.88 49.79 324.04   C 52.14 331.43 55.53 339.68 58.55 347.45   L 56.44 344.62   L 51.33 332.63   Q 42.75 307.78 38.94 281.77   L 37.82 269.28   Q 35.89 234.06 44.12 199.72   Q 47.70 186.10 53.01 173.05   L 60.50 156.28   L 73.37 133.92   Q 90.32 108.58 111.48 89.99   Q 119.92 82.56 134.47 72.03   L 149.55 62.76   L 177.06 49.80   Q 198.21 42.16 217.14 38.70   Q 285.52 26.18 348.99 55.46   A 0.20 0.16 29.5 0 1 349.09 55.72   L 349.09 55.73   Q 348.96 55.89 348.83 55.84   Q 333.32 49.19 320.80 45.35   Q 280.05 32.85 236.60 36.73   Q 227.64 37.53 216.81 39.78   Q 204.26 42.39 192.31 45.85   Q 187.42 47.26 183.04 49.69   Z"></path>
  <path fill="#b3b3b3" fill-opacity="0.384" d="   M 324.80 47.38   Q 319.43 46.20 308.70 43.43   Q 299.65 41.10 288.78 40.07   Q 259.77 35.64 230.54 38.76   Q 237.10 36.75 246.21 36.35   Q 262.28 35.64 269.55 36.55   Q 280.00 37.85 290.48 38.90   Q 304.61 40.32 324.80 47.38   Z"></path>
  <path fill="#ffffff" d="   M 288.78 40.07   Q 342.59 48.85 385.70 81.87   Q 427.89 114.68 450.40 163.04   L 456.25 177.04   L 456.42 177.55   L 459.99 188.08   L 460.26 188.97   Q 465.61 206.87 467.99 225.24   Q 473.79 272.47 460.07 316.06   C 443.15 369.79 405.82 415.36 356.48 441.72   Q 295.42 474.33 225.75 465.50   Q 212.91 463.87 196.97 459.54   Q 181.20 455.11 166.29 448.42   L 152.64 441.65   A 2.22 2.21 -39.4 0 0 151.08 441.50   L 55.03 466.68   Q 54.46 466.76 54.05 466.99   L 50.26 468.03   Q 48.89 468.14 47.57 468.69   Q 46.76 468.67 46.55 469.12   L 43.23 469.80   L 38.09 471.05   L 38.54 468.46   Q 38.79 468.01 38.81 467.52   L 39.72 463.99   L 41.08 459.29   L 42.32 454.84   L 62.88 379.80   L 65.38 370.51   L 68.15 360.26   Q 68.28 359.78 68.03 359.34   Q 51.49 329.92 44.30 297.00   Q 40.38 277.90 39.75 258.47   Q 38.52 205.77 60.96 159.21   Q 78.96 121.85 110.35 93.35   Q 142.33 64.31 183.04 49.69   Q 206.17 41.58 230.54 38.76   Q 259.77 35.64 288.78 40.07   Z   M 112.40 144.45   Q 101.18 159.26 93.20 176.00   Q 86.62 189.87 82.56 204.47   Q 78.43 219.26 76.95 234.21   Q 75.39 249.69 76.44 265.05   Q 78.60 295.25 90.51 323.04   Q 97.50 339.05 107.11 353.31   Q 107.62 354.06 107.38 354.93   L 101.50 376.35   L 89.64 419.64   A 0.28 0.28 0.0 0 0 89.98 419.98   L 156.38 402.57   Q 156.97 402.42 157.51 402.72   Q 165.63 407.26 168.86 409.06   Q 205.30 429.38 248.51 430.90   Q 284.08 432.15 316.74 419.99   Q 355.29 405.65 384.09 375.50   Q 408.50 349.75 421.37 316.78   Q 431.03 291.72 432.89 265.06   Q 433.91 250.95 432.71 236.99   Q 431.22 218.95 426.07 201.68   Q 421.54 186.18 414.18 171.69   Q 406.02 155.57 394.78 141.44   Q 370.26 110.75 337.56 93.93   Q 277.26 62.90 211.01 79.22   C 171.59 88.92 137.18 112.32 112.40 144.45   Z"></path>
  <path fill="#b3b3b2" fill-opacity="0.420" d="   M 324.80 47.38   L 335.70 51.45   Q 343.69 55.06 351.68 58.58   Q 356.72 60.79 373.06 70.68   Q 386.98 79.11 401.58 93.50   L 385.70 81.87   Q 342.59 48.85 288.78 40.07   Q 299.65 41.10 308.70 43.43   Q 319.43 46.20 324.80 47.38   Z"></path>
  <path fill="#b3b3b3" fill-opacity="0.384" d="   M 358.45 61.15   L 374.56 70.46   Q 384.45 76.52 393.40 84.14   Q 398.66 88.86 403.87 93.64   Q 411.25 100.40 418.10 107.68   C 422.02 111.85 426.74 118.15 431.58 123.01   Q 433.43 126.53 434.50 127.98   Q 442.43 138.73 448.17 149.28   Q 459.88 170.80 467.42 195.04   L 469.17 201.79   Q 472.64 219.11 473.58 226.60   C 476.67 251.21 476.19 276.82 470.24 300.80   Q 467.01 313.50 464.17 322.61   Q 462.63 327.56 459.77 333.22   C 465.67 316.46 470.24 299.39 472.13 281.71   L 473.66 264.80   Q 475.06 238.78 470.27 213.18   Q 468.80 205.27 466.33 197.63   Q 466.26 197.42 466.08 197.56   L 465.88 197.73   Q 465.87 197.74 465.87 197.75   L 470.11 215.32   C 471.21 226.02 472.66 237.09 472.90 247.46   Q 473.36 267.19 471.86 279.55   Q 471.32 284.01 467.98 301.25   Q 467.93 301.51 467.85 301.26   Q 467.79 301.08 467.81 300.99   Q 472.35 277.79 472.42 254.08   Q 472.46 242.26 471.69 234.12   Q 468.57 201.08 455.57 170.33   C 452.70 163.53 448.10 155.23 444.62 147.53   L 454.04 165.09   Q 454.17 165.32 454.42 165.24   L 454.67 165.16   Q 454.74 165.14 454.71 165.08   Q 452.11 159.09 449.94 155.01   Q 440.70 137.57 428.12 121.26   Q 418.78 108.26 406.80 97.60   L 401.58 93.50   Q 386.98 79.11 373.06 70.68   Q 356.72 60.79 351.68 58.58   Q 343.69 55.06 335.70 51.45   Q 347.45 55.22 358.45 61.15   Z   M 454.81 165.49   L 454.51 165.57   A 0.27 0.27 0.0 0 0 454.33 165.94   Q 461.05 181.16 465.61 197.20   Q 465.64 197.31 465.75 197.28   L 466.00 197.21   Q 466.20 197.16 466.15 196.95   Q 462.13 180.65 454.91 165.54   Q 454.88 165.47 454.81 165.49   Z"></path>
  <path fill="#b0b0b0" fill-opacity="0.337" d="   M 374.56 70.46   L 358.45 61.15   Q 367.04 64.80 374.56 70.46   Z"></path>
  <path fill="#b3b3b3" fill-opacity="0.306" d="   M 149.55 62.76   L 134.47 72.03   Q 141.63 66.81 149.55 62.76   Z"></path>
  <path fill="#b3b3b3" fill-opacity="0.235" d="   M 406.24 90.77   L 392.73 80.31   Q 387.19 75.17 380.52 71.77   L 367.96 62.69   Q 371.27 64.29 374.28 66.21   C 385.74 73.55 396.74 80.94 406.24 90.77   Z"></path>
  <path fill="#b3b3b3" fill-opacity="0.235" d="   M 133.98 70.71   Q 125.95 76.83 118.15 83.18   Q 106.16 92.96 98.23 101.23   Q 94.90 104.70 87.52 113.19   Q 81.56 120.04 77.48 125.69   Q 51.63 161.50 41.58 204.34   Q 31.84 245.85 37.89 286.50   Q 41.06 307.79 49.17 331.53   C 50.86 336.46 53.75 342.76 55.72 347.03   C 59.17 354.52 61.18 361.63 60.47 369.32   C 59.53 379.67 55.22 392.38 53.16 400.78   Q 51.22 408.74 48.92 416.61   Q 46.35 425.41 41.03 446.36   Q 38.70 455.52 39.72 463.99   L 38.81 467.52   Q 36.73 458.38 38.57 448.67   L 40.48 441.29   Q 47.19 420.83 51.71 399.79   Q 57.18 382.29 58.61 376.14   Q 61.73 362.76 55.32 349.09   Q 46.92 331.19 41.57 312.32   Q 38.23 296.04 37.49 291.30   Q 26.84 223.05 55.21 161.43   Q 69.93 129.46 96.01 101.64   Q 101.94 95.31 109.78 88.67   Q 119.04 80.82 124.45 76.69   Q 128.08 73.92 133.98 70.71   Z"></path>
  <path fill="#b3b3b3" fill-opacity="0.275" d="   M 392.73 80.31   L 380.52 71.77   Q 387.19 75.17 392.73 80.31   Z"></path>
  <path fill="#53cf60" d="   M 394.78 141.44   Q 367.24 142.79 356.52 142.79   Q 300.46 142.78 244.40 143.68   Q 234.21 143.84 224.40 143.85   Q 182.21 143.86 140.02 144.17   Q 126.32 144.27 112.40 144.45   C 137.18 112.32 171.59 88.92 211.01 79.22   Q 277.26 62.90 337.56 93.93   Q 370.26 110.75 394.78 141.44   Z"></path>
  <path fill="#b3b3b3" fill-opacity="0.475" d="   M 401.58 93.50   L 415.25 107.41   Q 415.49 107.65 415.56 107.32   L 415.66 106.92   Q 415.70 106.75 415.58 106.63   L 406.80 97.60   Q 418.78 108.26 428.12 121.26   L 421.98 114.50   Q 419.30 111.05 416.39 107.81   Q 416.18 107.59 416.00 107.75   Q 415.75 107.97 415.98 108.22   L 421.98 114.50   Q 432.14 127.78 438.96 137.78   Q 441.57 141.61 444.62 147.53   C 448.10 155.23 452.70 163.53 455.57 170.33   Q 468.57 201.08 471.69 234.12   Q 472.46 242.26 472.42 254.08   Q 472.35 277.79 467.81 300.99   Q 467.79 301.08 467.85 301.26   Q 467.93 301.51 467.98 301.25   Q 471.32 284.01 471.86 279.55   Q 473.36 267.19 472.90 247.46   C 472.66 237.09 471.21 226.02 470.11 215.32   Q 474.26 239.77 473.66 264.80   L 472.13 281.71   Q 469.48 298.45 464.93 314.76   Q 464.91 314.85 464.88 314.93   A 0.08 0.05 72.7 0 1 464.78 314.85   L 467.79 302.25   Q 467.84 302.03 467.70 301.98   L 467.70 301.97   Q 467.52 301.90 467.47 302.10   Q 463.63 316.72 458.57 330.97   C 456.54 336.67 453.51 342.95 451.02 348.99   L 446.48 359.73   L 429.45 386.07   Q 424.43 391.51 419.50 397.04   Q 412.95 404.40 409.42 407.90   Q 396.05 421.18 380.69 432.20   Q 379.33 433.17 377.64 435.29   Q 361.33 446.01 341.40 454.60   Q 329.32 459.80 318.99 462.45   Q 305.45 465.78 291.83 468.10   Q 256.63 474.09 222.56 468.17   Q 208.46 465.73 190.39 460.21   C 182.84 457.91 173.17 453.64 166.44 451.27   C 159.28 448.74 151.77 446.61 143.93 448.30   Q 115.82 454.38 88.24 462.41   C 81.08 464.50 74.31 465.99 66.71 467.74   Q 58.49 469.62 50.26 468.03   L 54.05 466.99   Q 62.80 468.21 70.97 464.98   C 86.19 461.28 101.31 456.78 116.40 453.15   Q 124.56 451.18 133.84 448.41   Q 142.23 445.91 151.46 446.03   C 155.98 446.10 161.44 447.47 166.29 448.42   Q 181.20 455.11 196.97 459.54   Q 200.93 461.59 207.20 463.09   Q 226.91 467.79 246.14 468.71   Q 299.50 471.26 347.79 449.00   Q 358.56 444.04 368.84 437.81   Q 376.78 433.00 382.13 428.32   Q 388.45 424.28 394.21 419.47   Q 407.42 408.44 418.56 395.26   Q 425.08 388.37 430.45 380.43   Q 431.30 378.95 432.57 378.02   Q 464.28 332.51 470.47 277.10   Q 474.63 239.90 465.37 202.11   Q 463.46 194.30 460.26 188.97   L 459.99 188.08   Q 459.94 182.25 456.42 177.55   L 456.25 177.04   Q 455.17 169.29 450.40 163.04   Q 427.89 114.68 385.70 81.87   L 401.58 93.50   Z"></path>
  <path fill="#b0b0b0" fill-opacity="0.337" d="   M 431.58 123.01   C 426.74 118.15 422.02 111.85 418.10 107.68   Q 411.25 100.40 403.87 93.64   Q 398.66 88.86 393.40 84.14   Q 397.79 86.89 403.57 92.17   Q 419.95 107.17 431.58 123.01   Z"></path>
  <path fill="#b3b3b3" fill-opacity="0.275" d="   M 416.65 103.63   C 410.39 97.09 406.05 93.16 398.07 85.83   A 0.19 0.19 0.0 0 1 398.07 85.55   L 398.27 85.34   Q 398.28 85.34 398.29 85.34   C 400.35 86.81 402.77 88.56 404.38 90.17   Q 410.86 96.67 417.10 103.39   Q 417.17 103.46 416.99 103.63   L 416.98 103.64   Q 416.81 103.80 416.65 103.63   Z"></path>
  <path fill="#b3b3b3" fill-opacity="0.235" d="   M 430.02 115.99   L 423.43 108.94   Q 422.86 108.11 422.07 107.55   Q 421.54 107.17 421.90 107.71   Q 422.44 108.55 423.43 108.94   L 433.06 122.44   L 429.56 118.83   Q 424.90 111.19 418.66 104.90   Q 418.78 103.91 417.27 102.34   Q 411.73 96.60 406.24 90.77   Q 411.78 95.13 417.56 101.44   Q 425.12 109.70 430.02 115.99   Z"></path>
  <path fill="#b3b3b2" fill-opacity="0.420" d="   M 406.80 97.60   L 415.58 106.63   Q 415.70 106.75 415.66 106.92   L 415.56 107.32   Q 415.49 107.65 415.25 107.41   L 401.58 93.50   L 406.80 97.60   Z"></path>
  <path fill="#b3b3b3" fill-opacity="0.275" d="   M 418.66 104.90   Q 424.90 111.19 429.56 118.83   Q 423.33 112.11 418.66 104.90   Z"></path>
  <path fill="#b3b3b3" fill-opacity="0.275" d="   M 423.43 108.94   Q 422.44 108.55 421.90 107.71   Q 421.54 107.17 422.07 107.55   Q 422.86 108.11 423.43 108.94   Z"></path>
  <path fill="#b1b2b1" fill-opacity="0.557" d="   M 421.98 114.50   L 415.98 108.22   Q 415.75 107.97 416.00 107.75   Q 416.18 107.59 416.39 107.81   Q 419.30 111.05 421.98 114.50   Z"></path>
  <path fill="#b3b3b3" fill-opacity="0.275" d="   M 430.02 115.99   L 442.27 133.44   L 449.87 146.70   Q 454.51 156.06 459.19 165.38   Q 463.59 174.14 468.35 190.43   Q 473.41 207.71 474.82 219.97   Q 473.21 212.55 471.49 205.19   Q 460.87 159.67 433.06 122.44   L 423.43 108.94   L 430.02 115.99   Z"></path>
  <path fill="#b3b3b2" fill-opacity="0.420" d="   M 428.12 121.26   Q 440.70 137.57 449.94 155.01   Q 452.11 159.09 454.71 165.08   Q 454.74 165.14 454.67 165.16   L 454.42 165.24   Q 454.17 165.32 454.04 165.09   L 444.62 147.53   Q 441.57 141.61 438.96 137.78   Q 432.14 127.78 421.98 114.50   L 428.12 121.26   Z"></path>
  <path fill="#b0b0b0" fill-opacity="0.337" d="   M 467.42 195.04   Q 459.88 170.80 448.17 149.28   Q 442.43 138.73 434.50 127.98   Q 433.43 126.53 431.58 123.01   Q 434.93 126.49 436.48 128.75   Q 453.45 153.35 463.57 181.48   Q 465.97 188.16 467.42 195.04   Z"></path>
  <path fill="#b3b3b3" fill-opacity="0.235" d="   M 449.87 146.70   L 442.27 133.44   Q 453.06 148.15 460.25 165.02   Q 460.36 165.27 460.10 165.36   L 459.83 165.45   Q 459.67 165.51 459.59 165.36   L 449.87 146.70   Z"></path>
  <path fill="#b3b3b3" fill-opacity="0.306" d="   M 73.37 133.92   L 60.50 156.28   Q 65.87 144.48 73.37 133.92   Z"></path>
  <path fill="#4ccb5b" d="   M 394.78 141.44   Q 406.02 155.57 414.18 171.69   Q 383.84 173.07 358.94 173.03   Q 274.96 172.89 205.90 173.95   Q 203.51 168.55 201.10 162.89   Q 199.59 159.36 197.56 156.93   C 195.20 154.09 192.82 153.42 188.90 153.26   Q 181.13 152.95 178.50 153.07   Q 170.39 153.47 164.74 159.25   Q 159.37 164.74 154.97 170.97   C 134.80 173.36 116.93 174.51 93.20 176.00   Q 101.18 159.26 112.40 144.45   Q 126.32 144.27 140.02 144.17   Q 182.21 143.86 224.40 143.85   Q 234.21 143.84 244.40 143.68   Q 300.46 142.78 356.52 142.79   Q 367.24 142.79 394.78 141.44   Z"></path>
  <path fill="#ffffff" d="   M 205.90 173.95   L 218.91 205.53   Q 218.66 213.67 212.21 221.22   Q 204.66 230.05 202.65 232.23   Q 199.45 235.81 201.52 239.72   Q 207.66 251.35 218.11 263.66   Q 237.85 287.41 265.48 300.51   Q 273.88 304.50 278.05 306.02   Q 283.29 307.93 287.01 303.52   Q 299.78 288.41 304.43 281.96   C 306.20 279.51 308.54 278.00 311.28 278.57   Q 315.08 279.37 316.86 280.18   Q 336.87 289.24 359.97 301.04   C 361.84 301.99 363.25 303.25 363.50 305.53   Q 364.11 311.21 363.00 317.13   Q 361.95 322.96 360.47 327.45   C 356.70 338.87 344.29 346.99 333.34 351.83   Q 326.41 354.90 317.20 355.36   Q 307.33 355.85 300.46 354.34   Q 278.63 349.56 255.53 339.72   Q 238.65 332.52 222.71 320.44   Q 190.93 295.63 168.71 261.97   Q 158.38 248.42 151.90 233.34   Q 145.48 218.55 145.45 203.06   Q 145.74 185.55 154.97 170.97   Q 159.37 164.74 164.74 159.25   Q 170.39 153.47 178.50 153.07   Q 181.13 152.95 188.90 153.26   C 192.82 153.42 195.20 154.09 197.56 156.93   Q 199.59 159.36 201.10 162.89   Q 203.51 168.55 205.90 173.95   Z"></path>
  <path fill="#b3b3b3" fill-opacity="0.306" d="   M 60.50 156.28   L 53.01 173.05   Q 55.85 164.25 60.50 156.28   Z"></path>
  <path fill="#b3b3b3" fill-opacity="0.522" d="   M 456.25 177.04   L 450.40 163.04   Q 455.17 169.29 456.25 177.04   Z"></path>
  <path fill="#b3b3b2" fill-opacity="0.420" d="   M 454.91 165.54   Q 462.13 180.65 466.15 196.95   Q 466.20 197.16 466.00 197.21   L 465.75 197.28   Q 465.64 197.31 465.61 197.20   Q 461.05 181.16 454.33 165.94   A 0.27 0.27 0.0 0 1 454.51 165.57   L 454.81 165.49   Q 454.88 165.47 454.91 165.54   Z"></path>
  <path fill="#47c856" d="   M 154.97 170.97   Q 145.74 185.55 145.45 203.06   Q 114.09 205.38 82.56 204.47   Q 86.62 189.87 93.20 176.00   C 116.93 174.51 134.80 173.36 154.97 170.97   Z"></path>
  <path fill="#47c856" d="   M 414.18 171.69   Q 421.54 186.18 426.07 201.68   Q 351.82 203.07 261.16 203.23   Q 241.15 203.26 218.91 205.53   L 205.90 173.95   Q 274.96 172.89 358.94 173.03   Q 383.84 173.07 414.18 171.69   Z"></path>
  <path fill="#b3b3b3" fill-opacity="0.522" d="   M 459.99 188.08   L 456.42 177.55   Q 459.94 182.25 459.99 188.08   Z"></path>
  <path fill="#b3b3b3" fill-opacity="0.522" d="   M 432.57 378.02   Q 433.30 375.98 435.03 373.28   Q 442.29 361.96 449.64 347.20   Q 454.19 338.07 457.38 328.78   Q 463.64 310.52 466.52 296.63   Q 472.83 266.12 469.56 233.56   Q 469.14 229.32 467.99 225.24   Q 465.61 206.87 460.26 188.97   Q 463.46 194.30 465.37 202.11   Q 474.63 239.90 470.47 277.10   Q 464.28 332.51 432.57 378.02   Z"></path>
  <path fill="#b3b3b2" fill-opacity="0.420" d="   M 473.66 264.80   Q 474.26 239.77 470.11 215.32   L 465.87 197.75   Q 465.87 197.74 465.88 197.73   L 466.08 197.56   Q 466.26 197.42 466.33 197.63   Q 468.80 205.27 470.27 213.18   Q 475.06 238.78 473.66 264.80   Z"></path>
  <path fill="#b3b3b3" fill-opacity="0.306" d="   M 44.12 199.72   Q 35.89 234.06 37.82 269.28   Q 36.93 263.17 36.87 256.97   Q 36.65 234.06 41.21 210.71   Q 42.43 204.50 44.12 199.72   Z"></path>
  <path fill="#42c552" d="   M 432.71 236.99   Q 417.98 232.84 404.00 232.39   Q 387.24 231.86 365.86 232.17   Q 329.92 232.70 293.99 233.05   Q 272.15 233.26 221.86 232.70   Q 212.35 232.60 202.65 232.23   Q 204.66 230.05 212.21 221.22   Q 218.66 213.67 218.91 205.53   Q 241.15 203.26 261.16 203.23   Q 351.82 203.07 426.07 201.68   Q 431.22 218.95 432.71 236.99   Z"></path>
  <path fill="#b0b0b0" fill-opacity="0.337" d="   M 470.24 300.80   C 476.19 276.82 476.67 251.21 473.58 226.60   Q 472.64 219.11 469.17 201.79   Q 470.69 205.93 470.95 207.13   Q 476.96 234.60 476.01 264.72   C 475.45 282.56 472.45 300.60 466.53 317.53   Q 466.44 317.80 466.23 317.68   L 466.22 317.67   Q 466.02 317.56 466.07 317.38   L 470.24 300.80   Z"></path>
  <path fill="#42c552" d="   M 145.45 203.06   Q 145.48 218.55 151.90 233.34   L 76.95 234.21   Q 78.43 219.26 82.56 204.47   Q 114.09 205.38 145.45 203.06   Z"></path>
  <path fill="#b1b2b1" fill-opacity="0.557" d="   M 432.57 378.02   Q 431.30 378.95 430.45 380.43   Q 423.70 387.15 418.56 395.26   C 413.99 399.42 409.67 404.25 405.38 408.15   Q 401.76 411.44 398.19 414.77   C 393.16 419.47 387.43 423.70 382.13 428.32   Q 376.78 433.00 368.84 437.81   Q 358.56 444.04 347.79 449.00   Q 299.50 471.26 246.14 468.71   Q 226.91 467.79 207.20 463.09   Q 200.93 461.59 196.97 459.54   Q 212.91 463.87 225.75 465.50   Q 295.42 474.33 356.48 441.72   C 405.82 415.36 443.15 369.79 460.07 316.06   Q 473.79 272.47 467.99 225.24   Q 469.14 229.32 469.56 233.56   Q 472.83 266.12 466.52 296.63   Q 463.64 310.52 457.38 328.78   Q 454.19 338.07 449.64 347.20   Q 442.29 361.96 435.03 373.28   Q 433.30 375.98 432.57 378.02   Z"></path>
  <path fill="#b3b3b3" fill-opacity="0.275" d="   M 471.95 304.39   Q 475.08 284.37 475.85 277.02   Q 477.42 262.05 477.06 252.50   Q 476.64 241.10 476.11 229.71   Q 479.77 261.37 474.50 292.90   Q 473.54 298.61 471.95 304.39   Z"></path>
  <path fill="#3dc24e" d="   M 432.71 236.99   Q 433.91 250.95 432.89 265.06   Q 417.32 262.37 399.07 262.24   Q 343.65 261.87 299.95 262.64   Q 288.95 262.83 279.95 262.90   Q 249.17 263.13 218.11 263.66   Q 207.66 251.35 201.52 239.72   Q 199.45 235.81 202.65 232.23   Q 212.35 232.60 221.86 232.70   Q 272.15 233.26 293.99 233.05   Q 329.92 232.70 365.86 232.17   Q 387.24 231.86 404.00 232.39   Q 417.98 232.84 432.71 236.99   Z"></path>
  <path fill="#3dc24e" d="   M 151.90 233.34   Q 158.38 248.42 168.71 261.97   Q 132.66 263.90 97.03 264.32   Q 86.80 264.43 76.44 265.05   Q 75.39 249.69 76.95 234.21   L 151.90 233.34   Z"></path>
  <path fill="#b3b3b3" fill-opacity="0.384" d="   M 39.75 258.47   Q 40.38 277.90 44.30 297.00   Q 44.84 303.80 47.05 311.60   C 49.62 320.68 51.25 326.69 54.71 334.51   Q 57.66 341.21 60.60 348.48   Q 64.83 358.99 65.38 370.51   L 62.88 379.80   Q 63.17 374.77 63.49 369.77   Q 64.24 357.83 58.55 347.45   C 55.53 339.68 52.14 331.43 49.79 324.04   Q 41.46 297.88 39.39 270.42   Q 39.04 265.78 39.75 258.47   Z"></path>
  <path fill="#37bf4a" d="   M 432.89 265.06   Q 431.03 291.72 421.37 316.78   Q 392.28 313.86 363.00 317.13   Q 364.11 311.21 363.50 305.53   C 363.25 303.25 361.84 301.99 359.97 301.04   Q 336.87 289.24 316.86 280.18   Q 315.08 279.37 311.28 278.57   C 308.54 278.00 306.20 279.51 304.43 281.96   Q 299.78 288.41 287.01 303.52   Q 283.29 307.93 278.05 306.02   Q 273.88 304.50 265.48 300.51   Q 237.85 287.41 218.11 263.66   Q 249.17 263.13 279.95 262.90   Q 288.95 262.83 299.95 262.64   Q 343.65 261.87 399.07 262.24   Q 417.32 262.37 432.89 265.06   Z"></path>
  <path fill="#35bd48" d="   M 168.71 261.97   Q 190.93 295.63 222.71 320.44   Q 197.99 321.98 185.73 322.01   Q 149.48 322.08 113.23 322.54   Q 101.91 322.69 90.51 323.04   Q 78.60 295.25 76.44 265.05   Q 86.80 264.43 97.03 264.32   Q 132.66 263.90 168.71 261.97   Z"></path>
  <path fill="#b3b3b3" fill-opacity="0.306" d="   M 51.33 332.63   Q 41.36 308.11 38.94 281.77   Q 42.75 307.78 51.33 332.63   Z"></path>
  <path fill="#b3b3b2" fill-opacity="0.420" d="   M 472.13 281.71   C 470.24 299.39 465.67 316.46 459.77 333.22   L 451.32 352.52   L 447.57 359.52   L 447.45 358.46   L 455.48 341.29   Q 455.60 341.05 455.33 341.07   L 455.06 341.09   Q 455.02 341.10 455.01 341.13   L 451.02 348.99   C 453.51 342.95 456.54 336.67 458.57 330.97   Q 463.63 316.72 467.47 302.10   Q 467.52 301.90 467.70 301.97   L 467.70 301.98   Q 467.84 302.03 467.79 302.25   L 464.78 314.85   A 0.08 0.05 72.7 0 0 464.88 314.93   Q 464.91 314.85 464.93 314.76   Q 469.48 298.45 472.13 281.71   Z   M 456.5452 337.9680   A 0.78 0.09 113.0 0 0 456.9328 337.2852   A 0.78 0.09 113.0 0 0 457.1548 336.5320   A 0.78 0.09 113.0 0 0 456.7672 337.2148   A 0.78 0.09 113.0 0 0 456.5452 337.9680   Z"></path>
  <path fill="#b3b3b2" fill-opacity="0.420" d="   M 65.38 370.51   Q 64.83 358.99 60.60 348.48   Q 57.66 341.21 54.71 334.51   C 51.25 326.69 49.62 320.68 47.05 311.60   Q 44.84 303.80 44.30 297.00   Q 51.49 329.92 68.03 359.34   Q 68.28 359.78 68.15 360.26   L 65.38 370.51   Z   M 64.5607 354.5204   A 0.26 0.26 0.0 0 0 64.2617 354.3063   L 64.1828 354.3194   A 0.26 0.26 0.0 0 0 63.9688 354.6184   L 65.8993 366.2796   A 0.26 0.26 0.0 0 0 66.1983 366.4937   L 66.2772 366.4806   A 0.26 0.26 0.0 0 0 66.4912 366.1816   L 64.5607 354.5204   Z"></path>
  <path fill="#2bb841" d="   M 421.37 316.78   Q 408.50 349.75 384.09 375.50   Q 364.80 374.73 351.56 374.76   Q 298.69 374.91 245.82 374.90   Q 235.80 374.90 225.82 375.02   Q 163.68 375.77 101.50 376.35   L 107.38 354.93   Q 107.62 354.06 107.11 353.31   Q 97.50 339.05 90.51 323.04   Q 101.91 322.69 113.23 322.54   Q 149.48 322.08 185.73 322.01   Q 197.99 321.98 222.71 320.44   Q 238.65 332.52 255.53 339.72   Q 278.63 349.56 300.46 354.34   Q 307.33 355.85 317.20 355.36   Q 326.41 354.90 333.34 351.83   C 344.29 346.99 356.70 338.87 360.47 327.45   Q 361.95 322.96 363.00 317.13   Q 392.28 313.86 421.37 316.78   Z"></path>
  <path fill="#b3b3b3" fill-opacity="0.384" d="   M 459.77 333.22   Q 457.18 343.57 451.32 352.52   L 459.77 333.22   Z"></path>
  <ellipse fill="#b1b2b1" fill-opacity="0.557" cx="0.00" cy="0.00" transform="translate(456.85,337.25) rotate(113.0)" rx="0.78" ry="0.09"></ellipse>
  <path fill="#b1b2b1" fill-opacity="0.557" d="   M 447.45 358.46   L 446.48 359.73   L 451.02 348.99   L 455.01 341.13   Q 455.02 341.10 455.06 341.09   L 455.33 341.07   Q 455.60 341.05 455.48 341.29   L 447.45 358.46   Z"></path>
  <path fill="#b3b3b3" fill-opacity="0.306" d="   M 58.55 347.45   Q 61.88 355.95 62.72 361.12   Q 63.85 368.07 61.63 376.97   Q 53.39 410.05 44.03 442.83   Q 42.34 448.74 42.32 454.84   L 41.08 459.29   Q 40.77 452.83 42.12 447.45   Q 43.03 443.84 51.88 411.70   Q 59.84 382.75 61.40 374.07   C 63.38 363.04 60.72 355.07 56.44 344.62   L 58.55 347.45   Z"></path>
  <path fill="#b0b0b0" fill-opacity="0.337" d="   M 62.88 379.80   L 42.32 454.84   Q 42.34 448.74 44.03 442.83   Q 53.39 410.05 61.63 376.97   Q 63.85 368.07 62.72 361.12   Q 61.88 355.95 58.55 347.45   Q 64.24 357.83 63.49 369.77   Q 63.17 374.77 62.88 379.80   Z"></path>
  <rect fill="#b1b2b1" fill-opacity="0.557" x="-0.30" y="-6.17" transform="translate(65.23,360.40) rotate(-9.4)" width="0.60" height="12.34" rx="0.26"></rect>
  <path fill="#b3b3b3" fill-opacity="0.384" d="   M 447.45 358.46   L 447.57 359.52   Q 442.10 371.88 437.96 377.19   C 432.85 383.75 427.54 391.10 422.56 396.84   Q 404.52 417.70 382.06 433.83   Q 379.14 435.94 366.69 443.38   Q 358.38 448.35 350.70 451.78   Q 335.82 458.41 325.64 461.72   Q 321.11 463.19 308.72 466.58   Q 298.55 469.35 291.57 470.44   Q 259.56 475.40 228.80 471.27   Q 209.87 468.72 189.89 462.60   C 181.11 459.90 172.21 455.22 163.27 452.68   C 154.57 450.21 147.25 449.55 138.18 451.73   Q 102.30 460.31 66.76 469.85   Q 56.25 472.67 46.55 469.12   Q 46.76 468.67 47.57 468.69   Q 57.97 471.28 68.62 468.46   Q 96.46 461.10 124.38 454.07   Q 140.72 449.96 143.86 449.62   Q 156.47 448.25 168.46 453.28   Q 185.29 460.34 202.71 464.93   Q 213.64 467.82 222.25 469.19   Q 266.74 476.30 310.91 465.17   Q 313.72 464.46 318.99 462.45   Q 329.32 459.80 341.40 454.60   Q 361.33 446.01 377.64 435.29   Q 408.01 414.89 429.45 386.07   L 446.48 359.73   L 447.45 358.46   Z"></path>
  <path fill="#24b43b" d="   M 384.09 375.50   Q 355.29 405.65 316.74 419.99   Q 284.08 432.15 248.51 430.90   Q 205.30 429.38 168.86 409.06   Q 165.63 407.26 157.51 402.72   Q 156.97 402.42 156.38 402.57   L 89.98 419.98   A 0.28 0.28 0.0 0 1 89.64 419.64   L 101.50 376.35   Q 163.68 375.77 225.82 375.02   Q 235.80 374.90 245.82 374.90   Q 298.69 374.91 351.56 374.76   Q 364.80 374.73 384.09 375.50   Z"></path>
  <path fill="#b3b3b3" fill-opacity="0.522" d="   M 430.45 380.43   Q 425.08 388.37 418.56 395.26   Q 423.70 387.15 430.45 380.43   Z"></path>
  <path fill="#b3b3b2" fill-opacity="0.420" d="   M 377.64 435.29   Q 379.33 433.17 380.69 432.20   Q 396.05 421.18 409.42 407.90   Q 412.95 404.40 419.50 397.04   Q 424.43 391.51 429.45 386.07   Q 408.01 414.89 377.64 435.29   Z"></path>
  <path fill="#b3b3b3" fill-opacity="0.522" d="   M 418.56 395.26   Q 407.42 408.44 394.21 419.47   Q 388.45 424.28 382.13 428.32   C 387.43 423.70 393.16 419.47 398.19 414.77   Q 401.76 411.44 405.38 408.15   C 409.67 404.25 413.99 399.42 418.56 395.26   Z"></path>
  <path fill="#b3b3b3" fill-opacity="0.208" d="   M 51.71 399.79   Q 47.19 420.83 40.48 441.29   Q 45.09 423.17 49.79 405.18   Q 50.52 402.40 51.71 399.79   Z"></path>
  <path fill="#b1b2b1" fill-opacity="0.557" d="   M 166.29 448.42   C 161.44 447.47 155.98 446.10 151.46 446.03   Q 142.23 445.91 133.84 448.41   Q 124.56 451.18 116.40 453.15   C 101.31 456.78 86.19 461.28 70.97 464.98   Q 63.01 466.72 55.03 466.68   L 151.08 441.50   A 2.22 2.21 -39.4 0 1 152.64 441.65   L 166.29 448.42   Z"></path>
  <path fill="#b3b3b2" fill-opacity="0.420" d="   M 318.99 462.45   Q 313.72 464.46 310.91 465.17   Q 266.74 476.30 222.25 469.19   Q 213.64 467.82 202.71 464.93   Q 185.29 460.34 168.46 453.28   Q 156.47 448.25 143.86 449.62   Q 140.72 449.96 124.38 454.07   Q 96.46 461.10 68.62 468.46   Q 57.97 471.28 47.57 468.69   Q 48.89 468.14 50.26 468.03   Q 58.49 469.62 66.71 467.74   C 74.31 465.99 81.08 464.50 88.24 462.41   Q 115.82 454.38 143.93 448.30   C 151.77 446.61 159.28 448.74 166.44 451.27   C 173.17 453.64 182.84 457.91 190.39 460.21   Q 208.46 465.73 222.56 468.17   Q 256.63 474.09 291.83 468.10   Q 305.45 465.78 318.99 462.45   Z"></path>
  <path fill="#b3b3b3" fill-opacity="0.208" d="   M 38.57 448.67   Q 36.73 458.38 38.81 467.52   Q 38.79 468.01 38.54 468.46   Q 35.38 458.83 38.57 448.67   Z"></path>
  <path fill="#b3b3b3" fill-opacity="0.522" d="   M 70.97 464.98   Q 62.80 468.21 54.05 466.99   Q 54.46 466.76 55.03 466.68   Q 63.01 466.72 70.97 464.98   Z"></path>
</svg>
